<?xml version="1.0" standalone="no"?>
<svg xmlns="http://www.w3.org/2000/svg" width="200" height="200"><defs><clipPath id="clip-path-dot-color"><path d="M 7 52v 5h 2.5a 2.5 2.5, 0, 0, 0, 0 -5" transform="rotate(-90,9.5,54.5)"/><path d="M 7 57v 5h 2.5a 2.5 2.5, 0, 0, 0, 0 -5" transform="rotate(90,9.5,59.5)"/><path d="M 7 67v 5h 2.5a 2.5 2.5, 0, 0, 0, 0 -5" transform="rotate(-90,9.5,69.5)"/><path d="M 7 72v 5h 5v -2.5a 2.5 2.5, 0, 0, 0, -2.5 -2.5" transform="rotate(180,9.5,74.5)"/><path d="M 7 92v 5h 2.5a 2.5 2.5, 0, 0, 0, 0 -5" transform="rotate(180,9.5,94.5)"/><path d="M 7 102v 5h 5v -2.5a 2.5 2.5, 0, 0, 0, -2.5 -2.5" transform="rotate(-90,9.5,104.5)"/><path d="M 7 107v 5h 5v -2.5a 2.5 2.5, 0, 0, 0, -2.5 -2.5" transform="rotate(180,9.5,109.5)"/><circle cx="9.5" cy="119.5" r="2.5" transform="rotate(0,9.5,119.5)"/><path d="M 7 127v 5h 2.5a 2.5 2.5, 0, 0, 0, 0 -5" transform="rotate(180,9.5,129.5)"/><circle cx="9.5" cy="149.5" r="2.5" transform="rotate(0,9.5,149.5)"/><path d="M 12 47v 5h 2.5a 2.5 2.5, 0, 0, 0, 0 -5" transform="rotate(180,14.5,49.5)"/><rect x="12" y="72" width="5" height="5" transform="rotate(0,14.5,74.5)"/><path d="M 12 87v 5h 5v -2.5a 2.5 2.5, 0, 0, 0, -2.5 -2.5" transform="rotate(-90,14.5,89.5)"/><rect x="12" y="92" width="5" height="5" transform="rotate(0,14.5,94.5)"/><rect x="12" y="97" width="5" height="5" transform="rotate(0,14.5,99.5)"/><rect x="12" y="102" width="5" height="5" transform="rotate(0,14.5,104.5)"/><rect x="12" y="107" width="5" height="5" transform="rotate(0,14.5,109.5)"/><path d="M 12 122v 5h 2.5a 2.5 2.5, 0, 0, 0, 0 -5" transform="rotate(-90,14.5,124.5)"/><path d="M 12 127v 5h 5v -2.5a 2.5 2.5, 0, 0, 0, -2.5 -2.5" transform="rotate(90,14.5,129.5)"/><path d="M 17 47v 5h 5v -2.5a 2.5 2.5, 0, 0, 0, -2.5 -2.5" transform="rotate(0,19.5,49.5)"/><rect x="17" y="52" width="5" height="5" transform="rotate(0,19.5,54.5)"/><rect x="17" y="57" width="5" height="5" transform="rotate(0,19.5,59.5)"/><rect x="17" y="62" width="5" height="5" transform="rotate(0,19.5,64.5)"/><rect x="17" y="67" width="5" height="5" transform="rotate(0,19.5,69.5)"/><rect x="17" y="72" width="5" height="5" transform="rotate(0,19.5,74.5)"/><rect x="17" y="77" width="5" height="5" transform="rotate(0,19.5,79.5)"/><rect x="17" y="82" width="5" height="5" transform="rotate(0,19.5,84.5)"/><rect x="17" y="87" width="5" height="5" transform="rotate(0,19.5,89.5)"/><path d="M 17 92v 5h 5v -2.5a 2.5 2.5, 0, 0, 0, -2.5 -2.5" transform="rotate(90,19.5,94.5)"/><path d="M 17 102v 5h 5v -2.5a 2.5 2.5, 0, 0, 0, -2.5 -2.5" transform="rotate(0,19.5,104.5)"/><rect x="17" y="107" width="5" height="5" transform="rotate(0,19.5,109.5)"/><path d="M 17 117v 5h 2.5a 2.5 2.5, 0, 0, 0, 0 -5" transform="rotate(180,19.5,119.5)"/><path d="M 17 132v 5h 5v -2.5a 2.5 2.5, 0, 0, 0, -2.5 -2.5" transform="rotate(-90,19.5,134.5)"/><rect x="17" y="137" width="5" height="5" transform="rotate(0,19.5,139.5)"/><rect x="17" y="142" width="5" height="5" transform="rotate(0,19.5,144.5)"/><path d="M 17 147v 5h 2.5a 2.5 2.5, 0, 0, 0, 0 -5" transform="rotate(90,19.5,149.5)"/><rect x="22" y="57" width="5" height="5" transform="rotate(0,24.5,59.5)"/><path d="M 22 62v 5h 5v -2.5a 2.5 2.5, 0, 0, 0, -2.5 -2.5" transform="rotate(90,24.5,64.5)"/><path d="M 22 107v 5h 2.5a 2.5 2.5, 0, 0, 0, 0 -5" transform="rotate(0,24.5,109.5)"/><rect x="22" y="117" width="5" height="5" transform="rotate(0,24.5,119.5)"/><path d="M 22 127v 5h 5v -2.5a 2.5 2.5, 0, 0, 0, -2.5 -2.5" transform="rotate(-90,24.5,129.5)"/><rect x="22" y="132" width="5" height="5" transform="rotate(0,24.5,134.5)"/><rect x="22" y="137" width="5" height="5" transform="rotate(0,24.5,139.5)"/><rect x="22" y="142" width="5" height="5" transform="rotate(0,24.5,144.5)"/><rect x="27" y="57" width="5" height="5" transform="rotate(0,29.5,59.5)"/><path d="M 27 67v 5h 2.5a 2.5 2.5, 0, 0, 0, 0 -5" transform="rotate(180,29.5,69.5)"/><path d="M 27 82v 5h 2.5a 2.5 2.5, 0, 0, 0, 0 -5" transform="rotate(-90,29.5,84.5)"/><path d="M 27 87v 5h 5v -2.5a 2.5 2.5, 0, 0, 0, -2.5 -2.5" transform="rotate(180,29.5,89.5)"/><path d="M 27 97v 5h 2.5a 2.5 2.5, 0, 0, 0, 0 -5" transform="rotate(-90,29.5,99.5)"/><path d="M 27 102v 5h 5v -2.5a 2.5 2.5, 0, 0, 0, -2.5 -2.5" transform="rotate(180,29.5,104.5)"/><path d="M 27 117v 5h 2.5a 2.5 2.5, 0, 0, 0, 0 -5" transform="rotate(0,29.5,119.5)"/><path d="M 27 127v 5h 2.5a 2.5 2.5, 0, 0, 0, 0 -5" transform="rotate(0,29.5,129.5)"/><path d="M 27 137v 5h 5v -2.5a 2.5 2.5, 0, 0, 0, -2.5 -2.5" transform="rotate(0,29.5,139.5)"/><path d="M 27 142v 5h 5v -2.5a 2.5 2.5, 0, 0, 0, -2.5 -2.5" transform="rotate(90,29.5,144.5)"/><rect x="32" y="57" width="5" height="5" transform="rotate(0,34.5,59.5)"/><rect x="32" y="62" width="5" height="5" transform="rotate(0,34.5,64.5)"/><rect x="32" y="67" width="5" height="5" transform="rotate(0,34.5,69.5)"/><rect x="32" y="72" width="5" height="5" transform="rotate(0,34.5,74.5)"/><path d="M 32 77v 5h 5v -2.5a 2.5 2.5, 0, 0, 0, -2.5 -2.5" transform="rotate(180,34.5,79.5)"/><rect x="32" y="87" width="5" height="5" transform="rotate(0,34.5,89.5)"/><path d="M 32 92v 5h 2.5a 2.5 2.5, 0, 0, 0, 0 -5" transform="rotate(90,34.5,94.5)"/><path d="M 32 102v 5h 2.5a 2.5 2.5, 0, 0, 0, 0 -5" transform="rotate(0,34.5,104.5)"/><circle cx="34.5" cy="134.5" r="2.5" transform="rotate(0,34.5,134.5)"/><circle cx="39.5" cy="49.5" r="2.5" transform="rotate(0,39.5,49.5)"/><rect x="37" y="57" width="5" height="5" transform="rotate(0,39.5,59.5)"/><rect x="37" y="67" width="5" height="5" transform="rotate(0,39.5,69.5)"/><rect x="37" y="77" width="5" height="5" transform="rotate(0,39.5,79.5)"/><rect x="37" y="87" width="5" height="5" transform="rotate(0,39.5,89.5)"/><circle cx="39.5" cy="99.5" r="2.5" transform="rotate(0,39.5,99.5)"/><circle cx="39.5" cy="109.5" r="2.5" transform="rotate(0,39.5,109.5)"/><circle cx="39.5" cy="119.5" r="2.5" transform="rotate(0,39.5,119.5)"/><circle cx="39.5" cy="129.5" r="2.5" transform="rotate(0,39.5,129.5)"/><circle cx="39.5" cy="139.5" r="2.5" transform="rotate(0,39.5,139.5)"/><path d="M 37 147v 5h 2.5a 2.5 2.5, 0, 0, 0, 0 -5" transform="rotate(180,39.5,149.5)"/><path d="M 42 52v 5h 5v -2.5a 2.5 2.5, 0, 0, 0, -2.5 -2.5" transform="rotate(-90,44.5,54.5)"/><rect x="42" y="57" width="5" height="5" transform="rotate(0,44.5,59.5)"/><rect x="42" y="62" width="5" height="5" transform="rotate(0,44.5,64.5)"/><path d="M 42 67v 5h 5v -2.5a 2.5 2.5, 0, 0, 0, -2.5 -2.5" transform="rotate(90,44.5,69.5)"/><rect x="42" y="77" width="5" height="5" transform="rotate(0,44.5,79.5)"/><path d="M 42 87v 5h 2.5a 2.5 2.5, 0, 0, 0, 0 -5" transform="rotate(0,44.5,89.5)"/><path d="M 42 102v 5h 2.5a 2.5 2.5, 0, 0, 0, 0 -5" transform="rotate(180,44.5,104.5)"/><path d="M 42 122v 5h 2.5a 2.5 2.5, 0, 0, 0, 0 -5" transform="rotate(180,44.5,124.5)"/><path d="M 42 142v 5h 5v -2.5a 2.5 2.5, 0, 0, 0, -2.5 -2.5" transform="rotate(-90,44.5,144.5)"/><rect x="42" y="147" width="5" height="5" transform="rotate(0,44.5,149.5)"/><path d="M 47 12v 5h 5v -2.5a 2.5 2.5, 0, 0, 0, -2.5 -2.5" transform="rotate(-90,49.5,14.5)"/><rect x="47" y="17" width="5" height="5" transform="rotate(0,49.5,19.5)"/><path d="M 47 22v 5h 5v -2.5a 2.5 2.5, 0, 0, 0, -2.5 -2.5" transform="rotate(180,49.5,24.5)"/><path d="M 47 32v 5h 2.5a 2.5 2.5, 0, 0, 0, 0 -5" transform="rotate(-90,49.5,34.5)"/><path d="M 47 37v 5h 2.5a 2.5 2.5, 0, 0, 0, 0 -5" transform="rotate(90,49.5,39.5)"/><path d="M 47 52v 5h 2.5a 2.5 2.5, 0, 0, 0, 0 -5" transform="rotate(0,49.5,54.5)"/><rect x="47" y="77" width="5" height="5" transform="rotate(0,49.5,79.5)"/><path d="M 47 82v 5h 5v -2.5a 2.5 2.5, 0, 0, 0, -2.5 -2.5" transform="rotate(180,49.5,84.5)"/><path d="M 47 97v 5h 2.5a 2.5 2.5, 0, 0, 0, 0 -5" transform="rotate(-90,49.5,99.5)"/><rect x="47" y="102" width="5" height="5" transform="rotate(0,49.5,104.5)"/><circle cx="49.5" cy="114.5" r="2.5" transform="rotate(0,49.5,114.5)"/><rect x="47" y="122" width="5" height="5" transform="rotate(0,49.5,124.5)"/><path d="M 47 132v 5h 2.5a 2.5 2.5, 0, 0, 0, 0 -5" transform="rotate(180,49.5,134.5)"/><rect x="47" y="142" width="5" height="5" transform="rotate(0,49.5,144.5)"/><rect x="47" y="147" width="5" height="5" transform="rotate(0,49.5,149.5)"/><path d="M 47 177v 5h 5v -2.5a 2.5 2.5, 0, 0, 0, -2.5 -2.5" transform="rotate(-90,49.5,179.5)"/><path d="M 47 182v 5h 2.5a 2.5 2.5, 0, 0, 0, 0 -5" transform="rotate(90,49.5,184.5)"/><path d="M 52 7v 5h 2.5a 2.5 2.5, 0, 0, 0, 0 -5" transform="rotate(-90,54.5,9.5)"/><rect x="52" y="12" width="5" height="5" transform="rotate(0,54.5,14.5)"/><rect x="52" y="17" width="5" height="5" transform="rotate(0,54.5,19.5)"/><rect x="52" y="22" width="5" height="5" transform="rotate(0,54.5,24.5)"/><path d="M 52 27v 5h 5v -2.5a 2.5 2.5, 0, 0, 0, -2.5 -2.5" transform="rotate(180,54.5,29.5)"/><path d="M 52 42v 5h 2.5a 2.5 2.5, 0, 0, 0, 0 -5" transform="rotate(-90,54.5,44.5)"/><path d="M 52 47v 5h 2.5a 2.5 2.5, 0, 0, 0, 0 -5" transform="rotate(90,54.5,49.5)"/><path d="M 52 77v 5h 5v -2.5a 2.5 2.5, 0, 0, 0, -2.5 -2.5" transform="rotate(0,54.5,79.5)"/><rect x="52" y="82" width="5" height="5" transform="rotate(0,54.5,84.5)"/><path d="M 52 87v 5h 5v -2.5a 2.5 2.5, 0, 0, 0, -2.5 -2.5" transform="rotate(180,54.5,89.5)"/><path d="M 52 102v 5h 5v -2.5a 2.5 2.5, 0, 0, 0, -2.5 -2.5" transform="rotate(0,54.5,104.5)"/><path d="M 52 107v 5h 2.5a 2.5 2.5, 0, 0, 0, 0 -5" transform="rotate(90,54.5,109.5)"/><path d="M 52 117v 5h 2.5a 2.5 2.5, 0, 0, 0, 0 -5" transform="rotate(-90,54.5,119.5)"/><rect x="52" y="122" width="5" height="5" transform="rotate(0,54.5,124.5)"/><rect x="52" y="132" width="5" height="5" transform="rotate(0,54.5,134.5)"/><rect x="52" y="137" width="5" height="5" transform="rotate(0,54.5,139.5)"/><rect x="52" y="142" width="5" height="5" transform="rotate(0,54.5,144.5)"/><rect x="52" y="147" width="5" height="5" transform="rotate(0,54.5,149.5)"/><path d="M 52 152v 5h 5v -2.5a 2.5 2.5, 0, 0, 0, -2.5 -2.5" transform="rotate(180,54.5,154.5)"/><path d="M 52 162v 5h 2.5a 2.5 2.5, 0, 0, 0, 0 -5" transform="rotate(180,54.5,164.5)"/><rect x="52" y="177" width="5" height="5" transform="rotate(0,54.5,179.5)"/><rect x="57" y="27" width="5" height="5" transform="rotate(0,59.5,29.5)"/><rect x="57" y="32" width="5" height="5" transform="rotate(0,59.5,34.5)"/><path d="M 57 37v 5h 2.5a 2.5 2.5, 0, 0, 0, 0 -5" transform="rotate(90,59.5,39.5)"/><path d="M 57 52v 5h 2.5a 2.5 2.5, 0, 0, 0, 0 -5" transform="rotate(180,59.5,54.5)"/><path d="M 57 62v 5h 2.5a 2.5 2.5, 0, 0, 0, 0 -5" transform="rotate(180,59.5,64.5)"/><path d="M 57 72v 5h 2.5a 2.5 2.5, 0, 0, 0, 0 -5" transform="rotate(180,59.5,74.5)"/><path d="M 57 82v 5h 5v -2.5a 2.5 2.5, 0, 0, 0, -2.5 -2.5" transform="rotate(0,59.5,84.5)"/><rect x="57" y="87" width="5" height="5" transform="rotate(0,59.5,89.5)"/><rect x="57" y="92" width="5" height="5" transform="rotate(0,59.5,94.5)"/><path d="M 57 97v 5h 2.5a 2.5 2.5, 0, 0, 0, 0 -5" transform="rotate(90,59.5,99.5)"/><path d="M 57 122v 5h 5v -2.5a 2.5 2.5, 0, 0, 0, -2.5 -2.5" transform="rotate(0,59.5,124.5)"/><rect x="57" y="127" width="5" height="5" transform="rotate(0,59.5,129.5)"/><rect x="57" y="132" width="5" height="5" transform="rotate(0,59.5,134.5)"/><rect x="57" y="142" width="5" height="5" transform="rotate(0,59.5,144.5)"/><path d="M 57 152v 5h 2.5a 2.5 2.5, 0, 0, 0, 0 -5" transform="rotate(0,59.5,154.5)"/><path d="M 57 162v 5h 5v -2.5a 2.5 2.5, 0, 0, 0, -2.5 -2.5" transform="rotate(0,59.5,164.5)"/><rect x="57" y="167" width="5" height="5" transform="rotate(0,59.5,169.5)"/><rect x="57" y="172" width="5" height="5" transform="rotate(0,59.5,174.5)"/><rect x="57" y="177" width="5" height="5" transform="rotate(0,59.5,179.5)"/><circle cx="64.5" cy="14.5" r="2.5" transform="rotate(0,64.5,14.5)"/><path d="M 62 22v 5h 5v -2.5a 2.5 2.5, 0, 0, 0, -2.5 -2.5" transform="rotate(-90,64.5,24.5)"/><rect x="62" y="27" width="5" height="5" transform="rotate(0,64.5,29.5)"/><path d="M 62 32v 5h 5v -2.5a 2.5 2.5, 0, 0, 0, -2.5 -2.5" transform="rotate(90,64.5,34.5)"/><path d="M 62 47v 5h 2.5a 2.5 2.5, 0, 0, 0, 0 -5" transform="rotate(-90,64.5,49.5)"/><path d="M 62 52v 5h 5v -2.5a 2.5 2.5, 0, 0, 0, -2.5 -2.5" transform="rotate(90,64.5,54.5)"/><path d="M 62 62v 5h 5v -2.5a 2.5 2.5, 0, 0, 0, -2.5 -2.5" transform="rotate(0,64.5,64.5)"/><rect x="62" y="67" width="5" height="5" transform="rotate(0,64.5,69.5)"/><path d="M 62 72v 5h 5v -2.5a 2.5 2.5, 0, 0, 0, -2.5 -2.5" transform="rotate(90,64.5,74.5)"/><rect x="62" y="92" width="5" height="5" transform="rotate(0,64.5,94.5)"/><circle cx="64.5" cy="109.5" r="2.5" transform="rotate(0,64.5,109.5)"/><rect x="62" y="132" width="5" height="5" transform="rotate(0,64.5,134.5)"/><rect x="62" y="137" width="5" height="5" transform="rotate(0,64.5,139.5)"/><path d="M 62 142v 5h 5v -2.5a 2.5 2.5, 0, 0, 0, -2.5 -2.5" transform="rotate(90,64.5,144.5)"/><path d="M 62 172v 5h 5v -2.5a 2.5 2.5, 0, 0, 0, -2.5 -2.5" transform="rotate(0,64.5,174.5)"/><rect x="62" y="177" width="5" height="5" transform="rotate(0,64.5,179.5)"/><path d="M 62 187v 5h 2.5a 2.5 2.5, 0, 0, 0, 0 -5" transform="rotate(180,64.5,189.5)"/><path d="M 67 7v 5h 2.5a 2.5 2.5, 0, 0, 0, 0 -5" transform="rotate(180,69.5,9.5)"/><path d="M 67 17v 5h 2.5a 2.5 2.5, 0, 0, 0, 0 -5" transform="rotate(-90,69.5,19.5)"/><rect x="67" y="22" width="5" height="5" transform="rotate(0,69.5,24.5)"/><path d="M 67 37v 5h 2.5a 2.5 2.5, 0, 0, 0, 0 -5" transform="rotate(-90,69.5,39.5)"/><path d="M 67 42v 5h 2.5a 2.5 2.5, 0, 0, 0, 0 -5" transform="rotate(90,69.5,44.5)"/><circle cx="69.5" cy="59.5" r="2.5" transform="rotate(0,69.5,59.5)"/><rect x="67" y="67" width="5" height="5" transform="rotate(0,69.5,69.5)"/><circle cx="69.5" cy="79.5" r="2.5" transform="rotate(0,69.5,79.5)"/><path d="M 67 92v 5h 2.5a 2.5 2.5, 0, 0, 0, 0 -5" transform="rotate(0,69.5,94.5)"/><circle cx="69.5" cy="119.5" r="2.5" transform="rotate(0,69.5,119.5)"/><path d="M 67 127v 5h 5v -2.5a 2.5 2.5, 0, 0, 0, -2.5 -2.5" transform="rotate(-90,69.5,129.5)"/><rect x="67" y="132" width="5" height="5" transform="rotate(0,69.5,134.5)"/><rect x="67" y="137" width="5" height="5" transform="rotate(0,69.5,139.5)"/><path d="M 67 152v 5h 2.5a 2.5 2.5, 0, 0, 0, 0 -5" transform="rotate(-90,69.5,154.5)"/><rect x="67" y="157" width="5" height="5" transform="rotate(0,69.5,159.5)"/><rect x="67" y="162" width="5" height="5" transform="rotate(0,69.5,164.5)"/><path d="M 67 167v 5h 5v -2.5a 2.5 2.5, 0, 0, 0, -2.5 -2.5" transform="rotate(180,69.5,169.5)"/><rect x="67" y="177" width="5" height="5" transform="rotate(0,69.5,179.5)"/><rect x="67" y="182" width="5" height="5" transform="rotate(0,69.5,184.5)"/><rect x="67" y="187" width="5" height="5" transform="rotate(0,69.5,189.5)"/><path d="M 72 7v 5h 5v -2.5a 2.5 2.5, 0, 0, 0, -2.5 -2.5" transform="rotate(0,74.5,9.5)"/><path d="M 72 12v 5h 5v -2.5a 2.5 2.5, 0, 0, 0, -2.5 -2.5" transform="rotate(180,74.5,14.5)"/><rect x="72" y="22" width="5" height="5" transform="rotate(0,74.5,24.5)"/><rect x="72" y="27" width="5" height="5" transform="rotate(0,74.5,29.5)"/><path d="M 72 32v 5h 2.5a 2.5 2.5, 0, 0, 0, 0 -5" transform="rotate(90,74.5,34.5)"/><path d="M 72 62v 5h 5v -2.5a 2.5 2.5, 0, 0, 0, -2.5 -2.5" transform="rotate(-90,74.5,64.5)"/><rect x="72" y="67" width="5" height="5" transform="rotate(0,74.5,69.5)"/><path d="M 72 72v 5h 5v -2.5a 2.5 2.5, 0, 0, 0, -2.5 -2.5" transform="rotate(180,74.5,74.5)"/><path d="M 72 82v 5h 5v -2.5a 2.5 2.5, 0, 0, 0, -2.5 -2.5" transform="rotate(-90,74.5,84.5)"/><path d="M 72 87v 5h 5v -2.5a 2.5 2.5, 0, 0, 0, -2.5 -2.5" transform="rotate(180,74.5,89.5)"/><circle cx="74.5" cy="99.5" r="2.5" transform="rotate(0,74.5,99.5)"/><path d="M 72 107v 5h 5v -2.5a 2.5 2.5, 0, 0, 0, -2.5 -2.5" transform="rotate(-90,74.5,109.5)"/><path d="M 72 112v 5h 5v -2.5a 2.5 2.5, 0, 0, 0, -2.5 -2.5" transform="rotate(180,74.5,114.5)"/><path d="M 72 127v 5h 2.5a 2.5 2.5, 0, 0, 0, 0 -5" transform="rotate(0,74.5,129.5)"/><path d="M 72 137v 5h 5v -2.5a 2.5 2.5, 0, 0, 0, -2.5 -2.5" transform="rotate(0,74.5,139.5)"/><rect x="72" y="142" width="5" height="5" transform="rotate(0,74.5,144.5)"/><path d="M 72 147v 5h 2.5a 2.5 2.5, 0, 0, 0, 0 -5" transform="rotate(90,74.5,149.5)"/><rect x="72" y="157" width="5" height="5" transform="rotate(0,74.5,159.5)"/><rect x="72" y="162" width="5" height="5" transform="rotate(0,74.5,164.5)"/><rect x="72" y="167" width="5" height="5" transform="rotate(0,74.5,169.5)"/><rect x="72" y="177" width="5" height="5" transform="rotate(0,74.5,179.5)"/><rect x="72" y="182" width="5" height="5" transform="rotate(0,74.5,184.5)"/><path d="M 72 187v 5h 5v -2.5a 2.5 2.5, 0, 0, 0, -2.5 -2.5" transform="rotate(90,74.5,189.5)"/><path d="M 77 12v 5h 2.5a 2.5 2.5, 0, 0, 0, 0 -5" transform="rotate(0,79.5,14.5)"/><path d="M 77 22v 5h 5v -2.5a 2.5 2.5, 0, 0, 0, -2.5 -2.5" transform="rotate(0,79.5,24.5)"/><rect x="77" y="27" width="5" height="5" transform="rotate(0,79.5,29.5)"/><path d="M 77 37v 5h 2.5a 2.5 2.5, 0, 0, 0, 0 -5" transform="rotate(-90,79.5,39.5)"/><rect x="77" y="42" width="5" height="5" transform="rotate(0,79.5,44.5)"/><rect x="77" y="47" width="5" height="5" transform="rotate(0,79.5,49.5)"/><path d="M 77 52v 5h 5v -2.5a 2.5 2.5, 0, 0, 0, -2.5 -2.5" transform="rotate(180,79.5,54.5)"/><path d="M 77 62v 5h 2.5a 2.5 2.5, 0, 0, 0, 0 -5" transform="rotate(0,79.5,64.5)"/><rect x="77" y="72" width="5" height="5" transform="rotate(0,79.5,74.5)"/><rect x="77" y="82" width="5" height="5" transform="rotate(0,79.5,84.5)"/><rect x="77" y="87" width="5" height="5" transform="rotate(0,79.5,89.5)"/><path d="M 77 92v 5h 2.5a 2.5 2.5, 0, 0, 0, 0 -5" transform="rotate(90,79.5,94.5)"/><path d="M 77 102v 5h 5v -2.5a 2.5 2.5, 0, 0, 0, -2.5 -2.5" transform="rotate(-90,79.5,104.5)"/><rect x="77" y="107" width="5" height="5" transform="rotate(0,79.5,109.5)"/><path d="M 77 112v 5h 5v -2.5a 2.5 2.5, 0, 0, 0, -2.5 -2.5" transform="rotate(90,79.5,114.5)"/><circle cx="79.5" cy="134.5" r="2.5" transform="rotate(0,79.5,134.5)"/><path d="M 77 152v 5h 5v -2.5a 2.5 2.5, 0, 0, 0, -2.5 -2.5" transform="rotate(-90,79.5,154.5)"/><path d="M 77 157v 5h 5v -2.5a 2.5 2.5, 0, 0, 0, -2.5 -2.5" transform="rotate(90,79.5,159.5)"/><path d="M 77 167v 5h 2.5a 2.5 2.5, 0, 0, 0, 0 -5" transform="rotate(0,79.5,169.5)"/><path d="M 77 177v 5h 5v -2.5a 2.5 2.5, 0, 0, 0, -2.5 -2.5" transform="rotate(0,79.5,179.5)"/><path d="M 77 182v 5h 5v -2.5a 2.5 2.5, 0, 0, 0, -2.5 -2.5" transform="rotate(90,79.5,184.5)"/><circle cx="84.5" cy="9.5" r="2.5" transform="rotate(0,84.5,9.5)"/><rect x="82" y="27" width="5" height="5" transform="rotate(0,84.5,29.5)"/><path d="M 82 32v 5h 2.5a 2.5 2.5, 0, 0, 0, 0 -5" transform="rotate(90,84.5,34.5)"/><path d="M 82 42v 5h 2.5a 2.5 2.5, 0, 0, 0, 0 -5" transform="rotate(0,84.5,44.5)"/><path d="M 82 52v 5h 5v -2.5a 2.5 2.5, 0, 0, 0, -2.5 -2.5" transform="rotate(0,84.5,54.5)"/><path d="M 82 57v 5h 2.5a 2.5 2.5, 0, 0, 0, 0 -5" transform="rotate(90,84.5,59.5)"/><path d="M 82 72v 5h 2.5a 2.5 2.5, 0, 0, 0, 0 -5" transform="rotate(0,84.5,74.5)"/><path d="M 82 82v 5h 5v -2.5a 2.5 2.5, 0, 0, 0, -2.5 -2.5" transform="rotate(0,84.5,84.5)"/><rect x="82" y="87" width="5" height="5" transform="rotate(0,84.5,89.5)"/><path d="M 82 97v 5h 2.5a 2.5 2.5, 0, 0, 0, 0 -5" transform="rotate(-90,84.5,99.5)"/><rect x="82" y="102" width="5" height="5" transform="rotate(0,84.5,104.5)"/><path d="M 82 107v 5h 5v -2.5a 2.5 2.5, 0, 0, 0, -2.5 -2.5" transform="rotate(90,84.5,109.5)"/><circle cx="84.5" cy="139.5" r="2.5" transform="rotate(0,84.5,139.5)"/><path d="M 82 147v 5h 2.5a 2.5 2.5, 0, 0, 0, 0 -5" transform="rotate(-90,84.5,149.5)"/><path d="M 82 152v 5h 5v -2.5a 2.5 2.5, 0, 0, 0, -2.5 -2.5" transform="rotate(90,84.5,154.5)"/><path d="M 87 12v 5h 5v -2.5a 2.5 2.5, 0, 0, 0, -2.5 -2.5" transform="rotate(-90,89.5,14.5)"/><path d="M 87 17v 5h 5v -2.5a 2.5 2.5, 0, 0, 0, -2.5 -2.5" transform="rotate(180,89.5,19.5)"/><path d="M 87 27v 5h 2.5a 2.5 2.5, 0, 0, 0, 0 -5" transform="rotate(0,89.5,29.5)"/><circle cx="89.5" cy="39.5" r="2.5" transform="rotate(0,89.5,39.5)"/><path d="M 87 47v 5h 2.5a 2.5 2.5, 0, 0, 0, 0 -5" transform="rotate(180,89.5,49.5)"/><path d="M 87 77v 5h 2.5a 2.5 2.5, 0, 0, 0, 0 -5" transform="rotate(180,89.5,79.5)"/><rect x="87" y="87" width="5" height="5" transform="rotate(0,89.5,89.5)"/><path d="M 87 92v 5h 5v -2.5a 2.5 2.5, 0, 0, 0, -2.5 -2.5" transform="rotate(180,89.5,94.5)"/><rect x="87" y="102" width="5" height="5" transform="rotate(0,89.5,104.5)"/><path d="M 87 117v 5h 5v -2.5a 2.5 2.5, 0, 0, 0, -2.5 -2.5" transform="rotate(-90,89.5,119.5)"/><path d="M 87 122v 5h 2.5a 2.5 2.5, 0, 0, 0, 0 -5" transform="rotate(90,89.5,124.5)"/><circle cx="89.5" cy="134.5" r="2.5" transform="rotate(0,89.5,134.5)"/><path d="M 87 172v 5h 2.5a 2.5 2.5, 0, 0, 0, 0 -5" transform="rotate(-90,89.5,174.5)"/><path d="M 87 177v 5h 5v -2.5a 2.5 2.5, 0, 0, 0, -2.5 -2.5" transform="rotate(180,89.5,179.5)"/><path d="M 87 187v 5h 2.5a 2.5 2.5, 0, 0, 0, 0 -5" transform="rotate(180,89.5,189.5)"/><rect x="92" y="12" width="5" height="5" transform="rotate(0,94.5,14.5)"/><path d="M 92 17v 5h 5v -2.5a 2.5 2.5, 0, 0, 0, -2.5 -2.5" transform="rotate(90,94.5,19.5)"/><path d="M 92 47v 5h 2.5a 2.5 2.5, 0, 0, 0, 0 -5" transform="rotate(0,94.5,49.5)"/><path d="M 92 57v 5h 2.5a 2.5 2.5, 0, 0, 0, 0 -5" transform="rotate(180,94.5,59.5)"/><path d="M 92 72v 5h 2.5a 2.5 2.5, 0, 0, 0, 0 -5" transform="rotate(-90,94.5,74.5)"/><path d="M 92 77v 5h 5v -2.5a 2.5 2.5, 0, 0, 0, -2.5 -2.5" transform="rotate(90,94.5,79.5)"/><rect x="92" y="87" width="5" height="5" transform="rotate(0,94.5,89.5)"/><rect x="92" y="92" width="5" height="5" transform="rotate(0,94.5,94.5)"/><path d="M 92 102v 5h 5v -2.5a 2.5 2.5, 0, 0, 0, -2.5 -2.5" transform="rotate(0,94.5,104.5)"/><path d="M 92 107v 5h 2.5a 2.5 2.5, 0, 0, 0, 0 -5" transform="rotate(90,94.5,109.5)"/><rect x="92" y="117" width="5" height="5" transform="rotate(0,94.5,119.5)"/><path d="M 92 127v 5h 2.5a 2.5 2.5, 0, 0, 0, 0 -5" transform="rotate(180,94.5,129.5)"/><path d="M 92 137v 5h 5v -2.5a 2.5 2.5, 0, 0, 0, -2.5 -2.5" transform="rotate(-90,94.5,139.5)"/><path d="M 92 142v 5h 5v -2.5a 2.5 2.5, 0, 0, 0, -2.5 -2.5" transform="rotate(180,94.5,144.5)"/><path d="M 92 152v 5h 2.5a 2.5 2.5, 0, 0, 0, 0 -5" transform="rotate(180,94.5,154.5)"/><path d="M 92 162v 5h 2.5a 2.5 2.5, 0, 0, 0, 0 -5" transform="rotate(180,94.5,164.5)"/><rect x="92" y="177" width="5" height="5" transform="rotate(0,94.5,179.5)"/><rect x="92" y="187" width="5" height="5" transform="rotate(0,94.5,189.5)"/><path d="M 97 12v 5h 2.5a 2.5 2.5, 0, 0, 0, 0 -5" transform="rotate(0,99.5,14.5)"/><circle cx="99.5" cy="24.5" r="2.5" transform="rotate(0,99.5,24.5)"/><path d="M 97 32v 5h 5v -2.5a 2.5 2.5, 0, 0, 0, -2.5 -2.5" transform="rotate(-90,99.5,34.5)"/><path d="M 97 37v 5h 2.5a 2.5 2.5, 0, 0, 0, 0 -5" transform="rotate(90,99.5,39.5)"/><path d="M 97 52v 5h 2.5a 2.5 2.5, 0, 0, 0, 0 -5" transform="rotate(-90,99.5,54.5)"/><rect x="97" y="57" width="5" height="5" transform="rotate(0,99.5,59.5)"/><path d="M 97 82v 5h 5v -2.5a 2.5 2.5, 0, 0, 0, -2.5 -2.5" transform="rotate(-90,99.5,84.5)"/><rect x="97" y="87" width="5" height="5" transform="rotate(0,99.5,89.5)"/><path d="M 97 92v 5h 5v -2.5a 2.5 2.5, 0, 0, 0, -2.5 -2.5" transform="rotate(90,99.5,94.5)"/><path d="M 97 112v 5h 2.5a 2.5 2.5, 0, 0, 0, 0 -5" transform="rotate(-90,99.5,114.5)"/><rect x="97" y="117" width="5" height="5" transform="rotate(0,99.5,119.5)"/><rect x="97" y="122" width="5" height="5" transform="rotate(0,99.5,124.5)"/><rect x="97" y="127" width="5" height="5" transform="rotate(0,99.5,129.5)"/><rect x="97" y="132" width="5" height="5" transform="rotate(0,99.5,134.5)"/><rect x="97" y="137" width="5" height="5" transform="rotate(0,99.5,139.5)"/><rect x="97" y="142" width="5" height="5" transform="rotate(0,99.5,144.5)"/><rect x="97" y="147" width="5" height="5" transform="rotate(0,99.5,149.5)"/><rect x="97" y="152" width="5" height="5" transform="rotate(0,99.5,154.5)"/><rect x="97" y="157" width="5" height="5" transform="rotate(0,99.5,159.5)"/><rect x="97" y="162" width="5" height="5" transform="rotate(0,99.5,164.5)"/><path d="M 97 177v 5h 5v -2.5a 2.5 2.5, 0, 0, 0, -2.5 -2.5" transform="rotate(0,99.5,179.5)"/><rect x="97" y="182" width="5" height="5" transform="rotate(0,99.5,184.5)"/><rect x="97" y="187" width="5" height="5" transform="rotate(0,99.5,189.5)"/><circle cx="104.5" cy="9.5" r="2.5" transform="rotate(0,104.5,9.5)"/><path d="M 102 27v 5h 5v -2.5a 2.5 2.5, 0, 0, 0, -2.5 -2.5" transform="rotate(-90,104.5,29.5)"/><path d="M 102 32v 5h 5v -2.5a 2.5 2.5, 0, 0, 0, -2.5 -2.5" transform="rotate(90,104.5,34.5)"/><path d="M 102 42v 5h 2.5a 2.5 2.5, 0, 0, 0, 0 -5" transform="rotate(-90,104.5,44.5)"/><path d="M 102 47v 5h 5v -2.5a 2.5 2.5, 0, 0, 0, -2.5 -2.5" transform="rotate(180,104.5,49.5)"/><path d="M 102 57v 5h 2.5a 2.5 2.5, 0, 0, 0, 0 -5" transform="rotate(0,104.5,59.5)"/><path d="M 102 82v 5h 2.5a 2.5 2.5, 0, 0, 0, 0 -5" transform="rotate(0,104.5,84.5)"/><path d="M 102 97v 5h 2.5a 2.5 2.5, 0, 0, 0, 0 -5" transform="rotate(-90,104.5,99.5)"/><path d="M 102 102v 5h 5v -2.5a 2.5 2.5, 0, 0, 0, -2.5 -2.5" transform="rotate(180,104.5,104.5)"/><path d="M 102 117v 5h 2.5a 2.5 2.5, 0, 0, 0, 0 -5" transform="rotate(0,104.5,119.5)"/><path d="M 102 127v 5h 2.5a 2.5 2.5, 0, 0, 0, 0 -5" transform="rotate(0,104.5,129.5)"/><rect x="102" y="137" width="5" height="5" transform="rotate(0,104.5,139.5)"/><rect x="102" y="147" width="5" height="5" transform="rotate(0,104.5,149.5)"/><rect x="102" y="152" width="5" height="5" transform="rotate(0,104.5,154.5)"/><path d="M 102 162v 5h 2.5a 2.5 2.5, 0, 0, 0, 0 -5" transform="rotate(0,104.5,164.5)"/><circle cx="104.5" cy="174.5" r="2.5" transform="rotate(0,104.5,174.5)"/><path d="M 102 187v 5h 2.5a 2.5 2.5, 0, 0, 0, 0 -5" transform="rotate(0,104.5,189.5)"/><path d="M 107 12v 5h 5v -2.5a 2.5 2.5, 0, 0, 0, -2.5 -2.5" transform="rotate(-90,109.5,14.5)"/><rect x="107" y="17" width="5" height="5" transform="rotate(0,109.5,19.5)"/><rect x="107" y="22" width="5" height="5" transform="rotate(0,109.5,24.5)"/><rect x="107" y="27" width="5" height="5" transform="rotate(0,109.5,29.5)"/><circle cx="109.5" cy="39.5" r="2.5" transform="rotate(0,109.5,39.5)"/><rect x="107" y="47" width="5" height="5" transform="rotate(0,109.5,49.5)"/><circle cx="109.5" cy="69.5" r="2.5" transform="rotate(0,109.5,69.5)"/><rect x="107" y="102" width="5" height="5" transform="rotate(0,109.5,104.5)"/><rect x="107" y="107" width="5" height="5" transform="rotate(0,109.5,109.5)"/><path d="M 107 112v 5h 5v -2.5a 2.5 2.5, 0, 0, 0, -2.5 -2.5" transform="rotate(180,109.5,114.5)"/><path d="M 107 122v 5h 2.5a 2.5 2.5, 0, 0, 0, 0 -5" transform="rotate(180,109.5,124.5)"/><path d="M 107 132v 5h 5v -2.5a 2.5 2.5, 0, 0, 0, -2.5 -2.5" transform="rotate(-90,109.5,134.5)"/><rect x="107" y="137" width="5" height="5" transform="rotate(0,109.5,139.5)"/><path d="M 107 147v 5h 5v -2.5a 2.5 2.5, 0, 0, 0, -2.5 -2.5" transform="rotate(0,109.5,149.5)"/><rect x="107" y="152" width="5" height="5" transform="rotate(0,109.5,154.5)"/><circle cx="109.5" cy="169.5" r="2.5" transform="rotate(0,109.5,169.5)"/><path d="M 112 7v 5h 2.5a 2.5 2.5, 0, 0, 0, 0 -5" transform="rotate(-90,114.5,9.5)"/><rect x="112" y="12" width="5" height="5" transform="rotate(0,114.5,14.5)"/><rect x="112" y="17" width="5" height="5" transform="rotate(0,114.5,19.5)"/><rect x="112" y="22" width="5" height="5" transform="rotate(0,114.5,24.5)"/><rect x="112" y="27" width="5" height="5" transform="rotate(0,114.5,29.5)"/><path d="M 112 47v 5h 5v -2.5a 2.5 2.5, 0, 0, 0, -2.5 -2.5" transform="rotate(0,114.5,49.5)"/><path d="M 112 52v 5h 5v -2.5a 2.5 2.5, 0, 0, 0, -2.5 -2.5" transform="rotate(180,114.5,54.5)"/><path d="M 112 62v 5h 2.5a 2.5 2.5, 0, 0, 0, 0 -5" transform="rotate(180,114.5,64.5)"/><path d="M 112 72v 5h 2.5a 2.5 2.5, 0, 0, 0, 0 -5" transform="rotate(-90,114.5,74.5)"/><path d="M 112 77v 5h 5v -2.5a 2.5 2.5, 0, 0, 0, -2.5 -2.5" transform="rotate(180,114.5,79.5)"/><path d="M 112 92v 5h 5v -2.5a 2.5 2.5, 0, 0, 0, -2.5 -2.5" transform="rotate(-90,114.5,94.5)"/><rect x="112" y="97" width="5" height="5" transform="rotate(0,114.5,99.5)"/><path d="M 112 102v 5h 5v -2.5a 2.5 2.5, 0, 0, 0, -2.5 -2.5" transform="rotate(90,114.5,104.5)"/><path d="M 112 112v 5h 2.5a 2.5 2.5, 0, 0, 0, 0 -5" transform="rotate(0,114.5,114.5)"/><rect x="112" y="122" width="5" height="5" transform="rotate(0,114.5,124.5)"/><rect x="112" y="132" width="5" height="5" transform="rotate(0,114.5,134.5)"/><path d="M 112 137v 5h 5v -2.5a 2.5 2.5, 0, 0, 0, -2.5 -2.5" transform="rotate(90,114.5,139.5)"/><rect x="112" y="152" width="5" height="5" transform="rotate(0,114.5,154.5)"/><rect x="112" y="157" width="5" height="5" transform="rotate(0,114.5,159.5)"/><path d="M 112 162v 5h 2.5a 2.5 2.5, 0, 0, 0, 0 -5" transform="rotate(90,114.5,164.5)"/><path d="M 112 172v 5h 5v -2.5a 2.5 2.5, 0, 0, 0, -2.5 -2.5" transform="rotate(-90,114.5,174.5)"/><path d="M 112 177v 5h 2.5a 2.5 2.5, 0, 0, 0, 0 -5" transform="rotate(90,114.5,179.5)"/><path d="M 117 12v 5h 5v -2.5a 2.5 2.5, 0, 0, 0, -2.5 -2.5" transform="rotate(0,119.5,14.5)"/><rect x="117" y="17" width="5" height="5" transform="rotate(0,119.5,19.5)"/><rect x="117" y="22" width="5" height="5" transform="rotate(0,119.5,24.5)"/><rect x="117" y="27" width="5" height="5" transform="rotate(0,119.5,29.5)"/><rect x="117" y="32" width="5" height="5" transform="rotate(0,119.5,34.5)"/><path d="M 117 37v 5h 2.5a 2.5 2.5, 0, 0, 0, 0 -5" transform="rotate(90,119.5,39.5)"/><rect x="117" y="52" width="5" height="5" transform="rotate(0,119.5,54.5)"/><rect x="117" y="57" width="5" height="5" transform="rotate(0,119.5,59.5)"/><rect x="117" y="62" width="5" height="5" transform="rotate(0,119.5,64.5)"/><path d="M 117 67v 5h 2.5a 2.5 2.5, 0, 0, 0, 0 -5" transform="rotate(90,119.5,69.5)"/><rect x="117" y="77" width="5" height="5" transform="rotate(0,119.5,79.5)"/><path d="M 117 82v 5h 2.5a 2.5 2.5, 0, 0, 0, 0 -5" transform="rotate(90,119.5,84.5)"/><path d="M 117 92v 5h 2.5a 2.5 2.5, 0, 0, 0, 0 -5" transform="rotate(0,119.5,94.5)"/><path d="M 117 117v 5h 2.5a 2.5 2.5, 0, 0, 0, 0 -5" transform="rotate(-90,119.5,119.5)"/><path d="M 117 122v 5h 5v -2.5a 2.5 2.5, 0, 0, 0, -2.5 -2.5" transform="rotate(90,119.5,124.5)"/><path d="M 117 132v 5h 2.5a 2.5 2.5, 0, 0, 0, 0 -5" transform="rotate(0,119.5,134.5)"/><path d="M 117 152v 5h 2.5a 2.5 2.5, 0, 0, 0, 0 -5" transform="rotate(0,119.5,154.5)"/><path d="M 117 167v 5h 2.5a 2.5 2.5, 0, 0, 0, 0 -5" transform="rotate(-90,119.5,169.5)"/><rect x="117" y="172" width="5" height="5" transform="rotate(0,119.5,174.5)"/><circle cx="124.5" cy="9.5" r="2.5" transform="rotate(0,124.5,9.5)"/><path d="M 122 22v 5h 2.5a 2.5 2.5, 0, 0, 0, 0 -5" transform="rotate(0,124.5,24.5)"/><rect x="122" y="32" width="5" height="5" transform="rotate(0,124.5,34.5)"/><path d="M 122 47v 5h 2.5a 2.5 2.5, 0, 0, 0, 0 -5" transform="rotate(-90,124.5,49.5)"/><rect x="122" y="52" width="5" height="5" transform="rotate(0,124.5,54.5)"/><rect x="122" y="62" width="5" height="5" transform="rotate(0,124.5,64.5)"/><path d="M 122 72v 5h 5v -2.5a 2.5 2.5, 0, 0, 0, -2.5 -2.5" transform="rotate(-90,124.5,74.5)"/><rect x="122" y="77" width="5" height="5" transform="rotate(0,124.5,79.5)"/><path d="M 122 97v 5h 2.5a 2.5 2.5, 0, 0, 0, 0 -5" transform="rotate(180,124.5,99.5)"/><circle cx="124.5" cy="109.5" r="2.5" transform="rotate(0,124.5,109.5)"/><path d="M 122 142v 5h 2.5a 2.5 2.5, 0, 0, 0, 0 -5" transform="rotate(-90,124.5,144.5)"/><path d="M 122 147v 5h 2.5a 2.5 2.5, 0, 0, 0, 0 -5" transform="rotate(90,124.5,149.5)"/><path d="M 122 157v 5h 2.5a 2.5 2.5, 0, 0, 0, 0 -5" transform="rotate(180,124.5,159.5)"/><path d="M 122 172v 5h 5v -2.5a 2.5 2.5, 0, 0, 0, -2.5 -2.5" transform="rotate(0,124.5,174.5)"/><rect x="122" y="177" width="5" height="5" transform="rotate(0,124.5,179.5)"/><rect x="122" y="182" width="5" height="5" transform="rotate(0,124.5,184.5)"/><path d="M 122 187v 5h 5v -2.5a 2.5 2.5, 0, 0, 0, -2.5 -2.5" transform="rotate(180,124.5,189.5)"/><path d="M 127 12v 5h 2.5a 2.5 2.5, 0, 0, 0, 0 -5" transform="rotate(180,129.5,14.5)"/><path d="M 127 27v 5h 2.5a 2.5 2.5, 0, 0, 0, 0 -5" transform="rotate(-90,129.5,29.5)"/><rect x="127" y="32" width="5" height="5" transform="rotate(0,129.5,34.5)"/><rect x="127" y="37" width="5" height="5" transform="rotate(0,129.5,39.5)"/><path d="M 127 42v 5h 2.5a 2.5 2.5, 0, 0, 0, 0 -5" transform="rotate(90,129.5,44.5)"/><path d="M 127 52v 5h 2.5a 2.5 2.5, 0, 0, 0, 0 -5" transform="rotate(0,129.5,54.5)"/><path d="M 127 62v 5h 5v -2.5a 2.5 2.5, 0, 0, 0, -2.5 -2.5" transform="rotate(0,129.5,64.5)"/><rect x="127" y="67" width="5" height="5" transform="rotate(0,129.5,69.5)"/><rect x="127" y="72" width="5" height="5" transform="rotate(0,129.5,74.5)"/><rect x="127" y="77" width="5" height="5" transform="rotate(0,129.5,79.5)"/><circle cx="129.5" cy="89.5" r="2.5" transform="rotate(0,129.5,89.5)"/><path d="M 127 97v 5h 5v -2.5a 2.5 2.5, 0, 0, 0, -2.5 -2.5" transform="rotate(0,129.5,99.5)"/><path d="M 127 102v 5h 5v -2.5a 2.5 2.5, 0, 0, 0, -2.5 -2.5" transform="rotate(180,129.5,104.5)"/><path d="M 127 127v 5h 2.5a 2.5 2.5, 0, 0, 0, 0 -5" transform="rotate(180,129.5,129.5)"/><path d="M 127 137v 5h 2.5a 2.5 2.5, 0, 0, 0, 0 -5" transform="rotate(180,129.5,139.5)"/><path d="M 127 152v 5h 2.5a 2.5 2.5, 0, 0, 0, 0 -5" transform="rotate(-90,129.5,154.5)"/><rect x="127" y="157" width="5" height="5" transform="rotate(0,129.5,159.5)"/><path d="M 127 167v 5h 2.5a 2.5 2.5, 0, 0, 0, 0 -5" transform="rotate(180,129.5,169.5)"/><path d="M 127 177v 5h 2.5a 2.5 2.5, 0, 0, 0, 0 -5" transform="rotate(0,129.5,179.5)"/><rect x="127" y="187" width="5" height="5" transform="rotate(0,129.5,189.5)"/><rect x="132" y="12" width="5" height="5" transform="rotate(0,134.5,14.5)"/><rect x="132" y="17" width="5" height="5" transform="rotate(0,134.5,19.5)"/><path d="M 132 22v 5h 2.5a 2.5 2.5, 0, 0, 0, 0 -5" transform="rotate(90,134.5,24.5)"/><circle cx="134.5" cy="59.5" r="2.5" transform="rotate(0,134.5,59.5)"/><path d="M 132 77v 5h 5v -2.5a 2.5 2.5, 0, 0, 0, -2.5 -2.5" transform="rotate(0,134.5,79.5)"/><path d="M 132 82v 5h 2.5a 2.5 2.5, 0, 0, 0, 0 -5" transform="rotate(90,134.5,84.5)"/><path d="M 132 92v 5h 2.5a 2.5 2.5, 0, 0, 0, 0 -5" transform="rotate(180,134.5,94.5)"/><path d="M 132 102v 5h 2.5a 2.5 2.5, 0, 0, 0, 0 -5" transform="rotate(0,134.5,104.5)"/><circle cx="134.5" cy="114.5" r="2.5" transform="rotate(0,134.5,114.5)"/><path d="M 132 127v 5h 2.5a 2.5 2.5, 0, 0, 0, 0 -5" transform="rotate(0,134.5,129.5)"/><rect x="132" y="137" width="5" height="5" transform="rotate(0,134.5,139.5)"/><path d="M 132 157v 5h 5v -2.5a 2.5 2.5, 0, 0, 0, -2.5 -2.5" transform="rotate(0,134.5,159.5)"/><rect x="132" y="162" width="5" height="5" transform="rotate(0,134.5,164.5)"/><path d="M 132 167v 5h 5v -2.5a 2.5 2.5, 0, 0, 0, -2.5 -2.5" transform="rotate(90,134.5,169.5)"/><path d="M 132 182v 5h 5v -2.5a 2.5 2.5, 0, 0, 0, -2.5 -2.5" transform="rotate(-90,134.5,184.5)"/><path d="M 132 187v 5h 5v -2.5a 2.5 2.5, 0, 0, 0, -2.5 -2.5" transform="rotate(90,134.5,189.5)"/><path d="M 137 12v 5h 5v -2.5a 2.5 2.5, 0, 0, 0, -2.5 -2.5" transform="rotate(0,139.5,14.5)"/><path d="M 137 17v 5h 5v -2.5a 2.5 2.5, 0, 0, 0, -2.5 -2.5" transform="rotate(90,139.5,19.5)"/><path d="M 137 32v 5h 2.5a 2.5 2.5, 0, 0, 0, 0 -5" transform="rotate(-90,139.5,34.5)"/><rect x="137" y="37" width="5" height="5" transform="rotate(0,139.5,39.5)"/><rect x="137" y="42" width="5" height="5" transform="rotate(0,139.5,44.5)"/><rect x="137" y="47" width="5" height="5" transform="rotate(0,139.5,49.5)"/><path d="M 137 52v 5h 5v -2.5a 2.5 2.5, 0, 0, 0, -2.5 -2.5" transform="rotate(180,139.5,54.5)"/><circle cx="139.5" cy="64.5" r="2.5" transform="rotate(0,139.5,64.5)"/><circle cx="139.5" cy="74.5" r="2.5" transform="rotate(0,139.5,74.5)"/><path d="M 137 87v 5h 2.5a 2.5 2.5, 0, 0, 0, 0 -5" transform="rotate(-90,139.5,89.5)"/><path d="M 137 92v 5h 5v -2.5a 2.5 2.5, 0, 0, 0, -2.5 -2.5" transform="rotate(90,139.5,94.5)"/><rect x="137" y="137" width="5" height="5" transform="rotate(0,139.5,139.5)"/><path d="M 137 162v 5h 2.5a 2.5 2.5, 0, 0, 0, 0 -5" transform="rotate(0,139.5,164.5)"/><path d="M 137 177v 5h 2.5a 2.5 2.5, 0, 0, 0, 0 -5" transform="rotate(-90,139.5,179.5)"/><rect x="137" y="182" width="5" height="5" transform="rotate(0,139.5,184.5)"/><circle cx="144.5" cy="9.5" r="2.5" transform="rotate(0,144.5,9.5)"/><path d="M 142 22v 5h 2.5a 2.5 2.5, 0, 0, 0, 0 -5" transform="rotate(-90,144.5,24.5)"/><path d="M 142 27v 5h 2.5a 2.5 2.5, 0, 0, 0, 0 -5" transform="rotate(90,144.5,29.5)"/><rect x="142" y="42" width="5" height="5" transform="rotate(0,144.5,44.5)"/><rect x="142" y="47" width="5" height="5" transform="rotate(0,144.5,49.5)"/><rect x="142" y="52" width="5" height="5" transform="rotate(0,144.5,54.5)"/><path d="M 142 57v 5h 2.5a 2.5 2.5, 0, 0, 0, 0 -5" transform="rotate(90,144.5,59.5)"/><path d="M 142 107v 5h 2.5a 2.5 2.5, 0, 0, 0, 0 -5" transform="rotate(-90,144.5,109.5)"/><path d="M 142 112v 5h 5v -2.5a 2.5 2.5, 0, 0, 0, -2.5 -2.5" transform="rotate(180,144.5,114.5)"/><circle cx="144.5" cy="124.5" r="2.5" transform="rotate(0,144.5,124.5)"/><path d="M 142 137v 5h 2.5a 2.5 2.5, 0, 0, 0, 0 -5" transform="rotate(0,144.5,139.5)"/><path d="M 142 152v 5h 2.5a 2.5 2.5, 0, 0, 0, 0 -5" transform="rotate(180,144.5,154.5)"/><path d="M 142 167v 5h 2.5a 2.5 2.5, 0, 0, 0, 0 -5" transform="rotate(180,144.5,169.5)"/><path d="M 142 182v 5h 2.5a 2.5 2.5, 0, 0, 0, 0 -5" transform="rotate(0,144.5,184.5)"/><circle cx="149.5" cy="19.5" r="2.5" transform="rotate(0,149.5,19.5)"/><path d="M 147 32v 5h 2.5a 2.5 2.5, 0, 0, 0, 0 -5" transform="rotate(-90,149.5,34.5)"/><rect x="147" y="37" width="5" height="5" transform="rotate(0,149.5,39.5)"/><path d="M 147 42v 5h 5v -2.5a 2.5 2.5, 0, 0, 0, -2.5 -2.5" transform="rotate(90,149.5,44.5)"/><path d="M 147 67v 5h 5v -2.5a 2.5 2.5, 0, 0, 0, -2.5 -2.5" transform="rotate(-90,149.5,69.5)"/><rect x="147" y="72" width="5" height="5" transform="rotate(0,149.5,74.5)"/><rect x="147" y="77" width="5" height="5" transform="rotate(0,149.5,79.5)"/><rect x="147" y="82" width="5" height="5" transform="rotate(0,149.5,84.5)"/><path d="M 147 87v 5h 2.5a 2.5 2.5, 0, 0, 0, 0 -5" transform="rotate(90,149.5,89.5)"/><circle cx="149.5" cy="104.5" r="2.5" transform="rotate(0,149.5,104.5)"/><path d="M 147 112v 5h 5v -2.5a 2.5 2.5, 0, 0, 0, -2.5 -2.5" transform="rotate(0,149.5,114.5)"/><path d="M 147 117v 5h 5v -2.5a 2.5 2.5, 0, 0, 0, -2.5 -2.5" transform="rotate(180,149.5,119.5)"/><path d="M 147 127v 5h 5v -2.5a 2.5 2.5, 0, 0, 0, -2.5 -2.5" transform="rotate(-90,149.5,129.5)"/><path d="M 147 132v 5h 5v -2.5a 2.5 2.5, 0, 0, 0, -2.5 -2.5" transform="rotate(180,149.5,134.5)"/><path d="M 147 147v 5h 5v -2.5a 2.5 2.5, 0, 0, 0, -2.5 -2.5" transform="rotate(-90,149.5,149.5)"/><rect x="147" y="152" width="5" height="5" transform="rotate(0,149.5,154.5)"/><rect x="147" y="157" width="5" height="5" transform="rotate(0,149.5,159.5)"/><rect x="147" y="162" width="5" height="5" transform="rotate(0,149.5,164.5)"/><rect x="147" y="167" width="5" height="5" transform="rotate(0,149.5,169.5)"/><path d="M 147 177v 5h 2.5a 2.5 2.5, 0, 0, 0, 0 -5" transform="rotate(180,149.5,179.5)"/><path d="M 147 187v 5h 2.5a 2.5 2.5, 0, 0, 0, 0 -5" transform="rotate(180,149.5,189.5)"/><circle cx="154.5" cy="49.5" r="2.5" transform="rotate(0,154.5,49.5)"/><path d="M 152 57v 5h 2.5a 2.5 2.5, 0, 0, 0, 0 -5" transform="rotate(180,154.5,59.5)"/><path d="M 152 67v 5h 5v -2.5a 2.5 2.5, 0, 0, 0, -2.5 -2.5" transform="rotate(0,154.5,69.5)"/><rect x="152" y="72" width="5" height="5" transform="rotate(0,154.5,74.5)"/><rect x="152" y="77" width="5" height="5" transform="rotate(0,154.5,79.5)"/><rect x="152" y="82" width="5" height="5" transform="rotate(0,154.5,84.5)"/><path d="M 152 92v 5h 2.5a 2.5 2.5, 0, 0, 0, 0 -5" transform="rotate(-90,154.5,94.5)"/><path d="M 152 97v 5h 5v -2.5a 2.5 2.5, 0, 0, 0, -2.5 -2.5" transform="rotate(180,154.5,99.5)"/><circle cx="154.5" cy="109.5" r="2.5" transform="rotate(0,154.5,109.5)"/><path d="M 152 117v 5h 5v -2.5a 2.5 2.5, 0, 0, 0, -2.5 -2.5" transform="rotate(0,154.5,119.5)"/><rect x="152" y="122" width="5" height="5" transform="rotate(0,154.5,124.5)"/><rect x="152" y="127" width="5" height="5" transform="rotate(0,154.5,129.5)"/><rect x="152" y="132" width="5" height="5" transform="rotate(0,154.5,134.5)"/><rect x="152" y="147" width="5" height="5" transform="rotate(0,154.5,149.5)"/><rect x="152" y="167" width="5" height="5" transform="rotate(0,154.5,169.5)"/><rect x="152" y="172" width="5" height="5" transform="rotate(0,154.5,174.5)"/><path d="M 152 177v 5h 5v -2.5a 2.5 2.5, 0, 0, 0, -2.5 -2.5" transform="rotate(90,154.5,179.5)"/><rect x="152" y="187" width="5" height="5" transform="rotate(0,154.5,189.5)"/><path d="M 157 57v 5h 5v -2.5a 2.5 2.5, 0, 0, 0, -2.5 -2.5" transform="rotate(0,159.5,59.5)"/><path d="M 157 62v 5h 5v -2.5a 2.5 2.5, 0, 0, 0, -2.5 -2.5" transform="rotate(180,159.5,64.5)"/><path d="M 157 82v 5h 2.5a 2.5 2.5, 0, 0, 0, 0 -5" transform="rotate(0,159.5,84.5)"/><rect x="157" y="97" width="5" height="5" transform="rotate(0,159.5,99.5)"/><path d="M 157 102v 5h 5v -2.5a 2.5 2.5, 0, 0, 0, -2.5 -2.5" transform="rotate(180,159.5,104.5)"/><circle cx="159.5" cy="114.5" r="2.5" transform="rotate(0,159.5,114.5)"/><path d="M 157 132v 5h 2.5a 2.5 2.5, 0, 0, 0, 0 -5" transform="rotate(0,159.5,134.5)"/><rect x="157" y="147" width="5" height="5" transform="rotate(0,159.5,149.5)"/><circle cx="159.5" cy="159.5" r="2.5" transform="rotate(0,159.5,159.5)"/><rect x="157" y="167" width="5" height="5" transform="rotate(0,159.5,169.5)"/><rect x="157" y="172" width="5" height="5" transform="rotate(0,159.5,174.5)"/><rect x="157" y="187" width="5" height="5" transform="rotate(0,159.5,189.5)"/><path d="M 162 47v 5h 2.5a 2.5 2.5, 0, 0, 0, 0 -5" transform="rotate(-90,164.5,49.5)"/><path d="M 162 52v 5h 5v -2.5a 2.5 2.5, 0, 0, 0, -2.5 -2.5" transform="rotate(180,164.5,54.5)"/><rect x="162" y="62" width="5" height="5" transform="rotate(0,164.5,64.5)"/><path d="M 162 67v 5h 5v -2.5a 2.5 2.5, 0, 0, 0, -2.5 -2.5" transform="rotate(180,164.5,69.5)"/><path d="M 162 77v 5h 2.5a 2.5 2.5, 0, 0, 0, 0 -5" transform="rotate(180,164.5,79.5)"/><path d="M 162 87v 5h 2.5a 2.5 2.5, 0, 0, 0, 0 -5" transform="rotate(180,164.5,89.5)"/><path d="M 162 97v 5h 5v -2.5a 2.5 2.5, 0, 0, 0, -2.5 -2.5" transform="rotate(0,164.5,99.5)"/><rect x="162" y="102" width="5" height="5" transform="rotate(0,164.5,104.5)"/><path d="M 162 107v 5h 2.5a 2.5 2.5, 0, 0, 0, 0 -5" transform="rotate(90,164.5,109.5)"/><path d="M 162 117v 5h 5v -2.5a 2.5 2.5, 0, 0, 0, -2.5 -2.5" transform="rotate(-90,164.5,119.5)"/><path d="M 162 122v 5h 5v -2.5a 2.5 2.5, 0, 0, 0, -2.5 -2.5" transform="rotate(180,164.5,124.5)"/><path d="M 162 142v 5h 2.5a 2.5 2.5, 0, 0, 0, 0 -5" transform="rotate(-90,164.5,144.5)"/><rect x="162" y="147" width="5" height="5" transform="rotate(0,164.5,149.5)"/><rect x="162" y="167" width="5" height="5" transform="rotate(0,164.5,169.5)"/><rect x="162" y="172" width="5" height="5" transform="rotate(0,164.5,174.5)"/><path d="M 162 182v 5h 2.5a 2.5 2.5, 0, 0, 0, 0 -5" transform="rotate(-90,164.5,184.5)"/><path d="M 162 187v 5h 5v -2.5a 2.5 2.5, 0, 0, 0, -2.5 -2.5" transform="rotate(90,164.5,189.5)"/><rect x="167" y="52" width="5" height="5" transform="rotate(0,169.5,54.5)"/><rect x="167" y="62" width="5" height="5" transform="rotate(0,169.5,64.5)"/><path d="M 167 67v 5h 5v -2.5a 2.5 2.5, 0, 0, 0, -2.5 -2.5" transform="rotate(90,169.5,69.5)"/><path d="M 167 77v 5h 5v -2.5a 2.5 2.5, 0, 0, 0, -2.5 -2.5" transform="rotate(0,169.5,79.5)"/><rect x="167" y="82" width="5" height="5" transform="rotate(0,169.5,84.5)"/><path d="M 167 87v 5h 5v -2.5a 2.5 2.5, 0, 0, 0, -2.5 -2.5" transform="rotate(90,169.5,89.5)"/><rect x="167" y="117" width="5" height="5" transform="rotate(0,169.5,119.5)"/><rect x="167" y="122" width="5" height="5" transform="rotate(0,169.5,124.5)"/><rect x="167" y="127" width="5" height="5" transform="rotate(0,169.5,129.5)"/><rect x="167" y="132" width="5" height="5" transform="rotate(0,169.5,134.5)"/><path d="M 167 137v 5h 2.5a 2.5 2.5, 0, 0, 0, 0 -5" transform="rotate(90,169.5,139.5)"/><rect x="167" y="147" width="5" height="5" transform="rotate(0,169.5,149.5)"/><rect x="167" y="152" width="5" height="5" transform="rotate(0,169.5,154.5)"/><rect x="167" y="157" width="5" height="5" transform="rotate(0,169.5,159.5)"/><rect x="167" y="162" width="5" height="5" transform="rotate(0,169.5,164.5)"/><rect x="167" y="167" width="5" height="5" transform="rotate(0,169.5,169.5)"/><path d="M 167 172v 5h 5v -2.5a 2.5 2.5, 0, 0, 0, -2.5 -2.5" transform="rotate(90,169.5,174.5)"/><path d="M 172 47v 5h 5v -2.5a 2.5 2.5, 0, 0, 0, -2.5 -2.5" transform="rotate(-90,174.5,49.5)"/><rect x="172" y="52" width="5" height="5" transform="rotate(0,174.5,54.5)"/><rect x="172" y="57" width="5" height="5" transform="rotate(0,174.5,59.5)"/><rect x="172" y="62" width="5" height="5" transform="rotate(0,174.5,64.5)"/><rect x="172" y="82" width="5" height="5" transform="rotate(0,174.5,84.5)"/><path d="M 172 92v 5h 5v -2.5a 2.5 2.5, 0, 0, 0, -2.5 -2.5" transform="rotate(-90,174.5,94.5)"/><path d="M 172 97v 5h 5v -2.5a 2.5 2.5, 0, 0, 0, -2.5 -2.5" transform="rotate(180,174.5,99.5)"/><path d="M 172 107v 5h 2.5a 2.5 2.5, 0, 0, 0, 0 -5" transform="rotate(180,174.5,109.5)"/><rect x="172" y="117" width="5" height="5" transform="rotate(0,174.5,119.5)"/><rect x="172" y="127" width="5" height="5" transform="rotate(0,174.5,129.5)"/><rect x="172" y="132" width="5" height="5" transform="rotate(0,174.5,134.5)"/><rect x="172" y="147" width="5" height="5" transform="rotate(0,174.5,149.5)"/><rect x="172" y="157" width="5" height="5" transform="rotate(0,174.5,159.5)"/><rect x="172" y="162" width="5" height="5" transform="rotate(0,174.5,164.5)"/><rect x="172" y="167" width="5" height="5" transform="rotate(0,174.5,169.5)"/><path d="M 172 177v 5h 5v -2.5a 2.5 2.5, 0, 0, 0, -2.5 -2.5" transform="rotate(-90,174.5,179.5)"/><path d="M 172 182v 5h 5v -2.5a 2.5 2.5, 0, 0, 0, -2.5 -2.5" transform="rotate(180,174.5,184.5)"/><rect x="177" y="47" width="5" height="5" transform="rotate(0,179.5,49.5)"/><path d="M 177 52v 5h 5v -2.5a 2.5 2.5, 0, 0, 0, -2.5 -2.5" transform="rotate(90,179.5,54.5)"/><rect x="177" y="62" width="5" height="5" transform="rotate(0,179.5,64.5)"/><path d="M 177 67v 5h 2.5a 2.5 2.5, 0, 0, 0, 0 -5" transform="rotate(90,179.5,69.5)"/><path d="M 177 77v 5h 2.5a 2.5 2.5, 0, 0, 0, 0 -5" transform="rotate(-90,179.5,79.5)"/><rect x="177" y="82" width="5" height="5" transform="rotate(0,179.5,84.5)"/><rect x="177" y="87" width="5" height="5" transform="rotate(0,179.5,89.5)"/><rect x="177" y="92" width="5" height="5" transform="rotate(0,179.5,94.5)"/><rect x="177" y="97" width="5" height="5" transform="rotate(0,179.5,99.5)"/><rect x="177" y="102" width="5" height="5" transform="rotate(0,179.5,104.5)"/><rect x="177" y="107" width="5" height="5" transform="rotate(0,179.5,109.5)"/><rect x="177" y="112" width="5" height="5" transform="rotate(0,179.5,114.5)"/><rect x="177" y="117" width="5" height="5" transform="rotate(0,179.5,119.5)"/><rect x="177" y="122" width="5" height="5" transform="rotate(0,179.5,124.5)"/><rect x="177" y="127" width="5" height="5" transform="rotate(0,179.5,129.5)"/><rect x="177" y="132" width="5" height="5" transform="rotate(0,179.5,134.5)"/><path d="M 177 142v 5h 2.5a 2.5 2.5, 0, 0, 0, 0 -5" transform="rotate(-90,179.5,144.5)"/><path d="M 177 147v 5h 5v -2.5a 2.5 2.5, 0, 0, 0, -2.5 -2.5" transform="rotate(90,179.5,149.5)"/><path d="M 177 157v 5h 5v -2.5a 2.5 2.5, 0, 0, 0, -2.5 -2.5" transform="rotate(0,179.5,159.5)"/><rect x="177" y="162" width="5" height="5" transform="rotate(0,179.5,164.5)"/><rect x="177" y="167" width="5" height="5" transform="rotate(0,179.5,169.5)"/><rect x="177" y="172" width="5" height="5" transform="rotate(0,179.5,174.5)"/><rect x="177" y="177" width="5" height="5" transform="rotate(0,179.5,179.5)"/><path d="M 177 182v 5h 5v -2.5a 2.5 2.5, 0, 0, 0, -2.5 -2.5" transform="rotate(90,179.5,184.5)"/><path d="M 182 47v 5h 2.5a 2.5 2.5, 0, 0, 0, 0 -5" transform="rotate(0,184.5,49.5)"/><path d="M 182 57v 5h 2.5a 2.5 2.5, 0, 0, 0, 0 -5" transform="rotate(-90,184.5,59.5)"/><path d="M 182 62v 5h 5v -2.5a 2.5 2.5, 0, 0, 0, -2.5 -2.5" transform="rotate(90,184.5,64.5)"/><path d="M 182 72v 5h 2.5a 2.5 2.5, 0, 0, 0, 0 -5" transform="rotate(180,184.5,74.5)"/><rect x="182" y="82" width="5" height="5" transform="rotate(0,184.5,84.5)"/><rect x="182" y="97" width="5" height="5" transform="rotate(0,184.5,99.5)"/><rect x="182" y="107" width="5" height="5" transform="rotate(0,184.5,109.5)"/><rect x="182" y="132" width="5" height="5" transform="rotate(0,184.5,134.5)"/><path d="M 182 137v 5h 5v -2.5a 2.5 2.5, 0, 0, 0, -2.5 -2.5" transform="rotate(180,184.5,139.5)"/><path d="M 182 162v 5h 5v -2.5a 2.5 2.5, 0, 0, 0, -2.5 -2.5" transform="rotate(0,184.5,164.5)"/><rect x="182" y="167" width="5" height="5" transform="rotate(0,184.5,169.5)"/><rect x="182" y="172" width="5" height="5" transform="rotate(0,184.5,174.5)"/><rect x="182" y="177" width="5" height="5" transform="rotate(0,184.5,179.5)"/><path d="M 187 67v 5h 2.5a 2.5 2.5, 0, 0, 0, 0 -5" transform="rotate(-90,189.5,69.5)"/><rect x="187" y="72" width="5" height="5" transform="rotate(0,189.5,74.5)"/><rect x="187" y="77" width="5" height="5" transform="rotate(0,189.5,79.5)"/><path d="M 187 82v 5h 5v -2.5a 2.5 2.5, 0, 0, 0, -2.5 -2.5" transform="rotate(90,189.5,84.5)"/><path d="M 187 97v 5h 5v -2.5a 2.5 2.5, 0, 0, 0, -2.5 -2.5" transform="rotate(0,189.5,99.5)"/><rect x="187" y="102" width="5" height="5" transform="rotate(0,189.5,104.5)"/><path d="M 187 107v 5h 5v -2.5a 2.5 2.5, 0, 0, 0, -2.5 -2.5" transform="rotate(90,189.5,109.5)"/><circle cx="189.5" cy="119.5" r="2.5" transform="rotate(0,189.5,119.5)"/><path d="M 187 132v 5h 5v -2.5a 2.5 2.5, 0, 0, 0, -2.5 -2.5" transform="rotate(0,189.5,134.5)"/><path d="M 187 137v 5h 5v -2.5a 2.5 2.5, 0, 0, 0, -2.5 -2.5" transform="rotate(90,189.5,139.5)"/><circle cx="189.5" cy="154.5" r="2.5" transform="rotate(0,189.5,154.5)"/><path d="M 187 172v 5h 5v -2.5a 2.5 2.5, 0, 0, 0, -2.5 -2.5" transform="rotate(0,189.5,174.5)"/><rect x="187" y="177" width="5" height="5" transform="rotate(0,189.5,179.5)"/><rect x="187" y="182" width="5" height="5" transform="rotate(0,189.5,184.5)"/><path d="M 187 187v 5h 2.5a 2.5 2.5, 0, 0, 0, 0 -5" transform="rotate(90,189.5,189.5)"/><path d="M 7 7v 5h 5v -2.5a 2.5 2.5, 0, 0, 0, -2.5 -2.5" transform="rotate(-90,9.5,9.5)"/><rect x="7" y="12" width="5" height="5" transform="rotate(0,9.5,14.5)"/><rect x="7" y="17" width="5" height="5" transform="rotate(0,9.5,19.5)"/><rect x="7" y="22" width="5" height="5" transform="rotate(0,9.5,24.5)"/><rect x="7" y="27" width="5" height="5" transform="rotate(0,9.5,29.5)"/><rect x="7" y="32" width="5" height="5" transform="rotate(0,9.5,34.5)"/><path d="M 7 37v 5h 5v -2.5a 2.5 2.5, 0, 0, 0, -2.5 -2.5" transform="rotate(180,9.5,39.5)"/><rect x="12" y="7" width="5" height="5" transform="rotate(0,14.5,9.5)"/><rect x="12" y="37" width="5" height="5" transform="rotate(0,14.5,39.5)"/><rect x="17" y="7" width="5" height="5" transform="rotate(0,19.5,9.5)"/><rect x="17" y="37" width="5" height="5" transform="rotate(0,19.5,39.5)"/><rect x="22" y="7" width="5" height="5" transform="rotate(0,24.5,9.5)"/><rect x="22" y="37" width="5" height="5" transform="rotate(0,24.5,39.5)"/><rect x="27" y="7" width="5" height="5" transform="rotate(0,29.5,9.5)"/><rect x="27" y="37" width="5" height="5" transform="rotate(0,29.5,39.5)"/><rect x="32" y="7" width="5" height="5" transform="rotate(0,34.5,9.5)"/><rect x="32" y="37" width="5" height="5" transform="rotate(0,34.5,39.5)"/><path d="M 37 7v 5h 5v -2.5a 2.5 2.5, 0, 0, 0, -2.5 -2.5" transform="rotate(0,39.5,9.5)"/><rect x="37" y="12" width="5" height="5" transform="rotate(0,39.5,14.5)"/><rect x="37" y="17" width="5" height="5" transform="rotate(0,39.5,19.5)"/><rect x="37" y="22" width="5" height="5" transform="rotate(0,39.5,24.5)"/><rect x="37" y="27" width="5" height="5" transform="rotate(0,39.5,29.5)"/><rect x="37" y="32" width="5" height="5" transform="rotate(0,39.5,34.5)"/><path d="M 37 37v 5h 5v -2.5a 2.5 2.5, 0, 0, 0, -2.5 -2.5" transform="rotate(90,39.5,39.5)"/><path d="M 17 17v 5h 5v -2.5a 2.5 2.5, 0, 0, 0, -2.5 -2.5" transform="rotate(-90,19.5,19.5)"/><rect x="17" y="22" width="5" height="5" transform="rotate(0,19.5,24.5)"/><path d="M 17 27v 5h 5v -2.5a 2.5 2.5, 0, 0, 0, -2.5 -2.5" transform="rotate(180,19.5,29.5)"/><rect x="22" y="17" width="5" height="5" transform="rotate(0,24.5,19.5)"/><rect x="22" y="22" width="5" height="5" transform="rotate(0,24.5,24.5)"/><rect x="22" y="27" width="5" height="5" transform="rotate(0,24.5,29.5)"/><path d="M 27 17v 5h 5v -2.5a 2.5 2.5, 0, 0, 0, -2.5 -2.5" transform="rotate(0,29.5,19.5)"/><rect x="27" y="22" width="5" height="5" transform="rotate(0,29.5,24.5)"/><path d="M 27 27v 5h 5v -2.5a 2.5 2.5, 0, 0, 0, -2.5 -2.5" transform="rotate(90,29.5,29.5)"/><path d="M 157 7v 5h 5v -2.5a 2.5 2.5, 0, 0, 0, -2.5 -2.5" transform="rotate(-90,159.5,9.5)"/><rect x="157" y="12" width="5" height="5" transform="rotate(0,159.5,14.5)"/><rect x="157" y="17" width="5" height="5" transform="rotate(0,159.5,19.5)"/><rect x="157" y="22" width="5" height="5" transform="rotate(0,159.5,24.5)"/><rect x="157" y="27" width="5" height="5" transform="rotate(0,159.5,29.5)"/><rect x="157" y="32" width="5" height="5" transform="rotate(0,159.5,34.5)"/><path d="M 157 37v 5h 5v -2.5a 2.5 2.5, 0, 0, 0, -2.5 -2.5" transform="rotate(180,159.5,39.5)"/><rect x="162" y="7" width="5" height="5" transform="rotate(0,164.5,9.5)"/><rect x="162" y="37" width="5" height="5" transform="rotate(0,164.5,39.5)"/><rect x="167" y="7" width="5" height="5" transform="rotate(0,169.5,9.5)"/><rect x="167" y="37" width="5" height="5" transform="rotate(0,169.5,39.5)"/><rect x="172" y="7" width="5" height="5" transform="rotate(0,174.5,9.5)"/><rect x="172" y="37" width="5" height="5" transform="rotate(0,174.5,39.5)"/><rect x="177" y="7" width="5" height="5" transform="rotate(0,179.5,9.5)"/><rect x="177" y="37" width="5" height="5" transform="rotate(0,179.5,39.5)"/><rect x="182" y="7" width="5" height="5" transform="rotate(0,184.5,9.5)"/><rect x="182" y="37" width="5" height="5" transform="rotate(0,184.5,39.5)"/><path d="M 187 7v 5h 5v -2.5a 2.5 2.5, 0, 0, 0, -2.5 -2.5" transform="rotate(0,189.5,9.5)"/><rect x="187" y="12" width="5" height="5" transform="rotate(0,189.5,14.5)"/><rect x="187" y="17" width="5" height="5" transform="rotate(0,189.5,19.5)"/><rect x="187" y="22" width="5" height="5" transform="rotate(0,189.5,24.5)"/><rect x="187" y="27" width="5" height="5" transform="rotate(0,189.5,29.5)"/><rect x="187" y="32" width="5" height="5" transform="rotate(0,189.5,34.5)"/><path d="M 187 37v 5h 5v -2.5a 2.5 2.5, 0, 0, 0, -2.5 -2.5" transform="rotate(90,189.5,39.5)"/><path d="M 167 17v 5h 5v -2.5a 2.5 2.5, 0, 0, 0, -2.5 -2.5" transform="rotate(-90,169.5,19.5)"/><rect x="167" y="22" width="5" height="5" transform="rotate(0,169.5,24.5)"/><path d="M 167 27v 5h 5v -2.5a 2.5 2.5, 0, 0, 0, -2.5 -2.5" transform="rotate(180,169.5,29.5)"/><rect x="172" y="17" width="5" height="5" transform="rotate(0,174.5,19.5)"/><rect x="172" y="22" width="5" height="5" transform="rotate(0,174.5,24.5)"/><rect x="172" y="27" width="5" height="5" transform="rotate(0,174.5,29.5)"/><path d="M 177 17v 5h 5v -2.5a 2.5 2.5, 0, 0, 0, -2.5 -2.5" transform="rotate(0,179.5,19.5)"/><rect x="177" y="22" width="5" height="5" transform="rotate(0,179.5,24.5)"/><path d="M 177 27v 5h 5v -2.5a 2.5 2.5, 0, 0, 0, -2.5 -2.5" transform="rotate(90,179.5,29.5)"/><path d="M 7 157v 5h 5v -2.5a 2.5 2.5, 0, 0, 0, -2.5 -2.5" transform="rotate(-90,9.5,159.5)"/><rect x="7" y="162" width="5" height="5" transform="rotate(0,9.5,164.5)"/><rect x="7" y="167" width="5" height="5" transform="rotate(0,9.5,169.5)"/><rect x="7" y="172" width="5" height="5" transform="rotate(0,9.5,174.5)"/><rect x="7" y="177" width="5" height="5" transform="rotate(0,9.5,179.5)"/><rect x="7" y="182" width="5" height="5" transform="rotate(0,9.5,184.5)"/><path d="M 7 187v 5h 5v -2.5a 2.5 2.5, 0, 0, 0, -2.5 -2.5" transform="rotate(180,9.5,189.5)"/><rect x="12" y="157" width="5" height="5" transform="rotate(0,14.5,159.5)"/><rect x="12" y="187" width="5" height="5" transform="rotate(0,14.5,189.5)"/><rect x="17" y="157" width="5" height="5" transform="rotate(0,19.5,159.5)"/><rect x="17" y="187" width="5" height="5" transform="rotate(0,19.5,189.5)"/><rect x="22" y="157" width="5" height="5" transform="rotate(0,24.5,159.5)"/><rect x="22" y="187" width="5" height="5" transform="rotate(0,24.5,189.5)"/><rect x="27" y="157" width="5" height="5" transform="rotate(0,29.5,159.5)"/><rect x="27" y="187" width="5" height="5" transform="rotate(0,29.5,189.5)"/><rect x="32" y="157" width="5" height="5" transform="rotate(0,34.5,159.5)"/><rect x="32" y="187" width="5" height="5" transform="rotate(0,34.5,189.5)"/><path d="M 37 157v 5h 5v -2.5a 2.5 2.5, 0, 0, 0, -2.5 -2.5" transform="rotate(0,39.5,159.5)"/><rect x="37" y="162" width="5" height="5" transform="rotate(0,39.5,164.5)"/><rect x="37" y="167" width="5" height="5" transform="rotate(0,39.5,169.5)"/><rect x="37" y="172" width="5" height="5" transform="rotate(0,39.5,174.5)"/><rect x="37" y="177" width="5" height="5" transform="rotate(0,39.5,179.5)"/><rect x="37" y="182" width="5" height="5" transform="rotate(0,39.5,184.5)"/><path d="M 37 187v 5h 5v -2.5a 2.5 2.5, 0, 0, 0, -2.5 -2.5" transform="rotate(90,39.5,189.5)"/><path d="M 17 167v 5h 5v -2.5a 2.5 2.5, 0, 0, 0, -2.5 -2.5" transform="rotate(-90,19.5,169.5)"/><rect x="17" y="172" width="5" height="5" transform="rotate(0,19.5,174.5)"/><path d="M 17 177v 5h 5v -2.5a 2.5 2.5, 0, 0, 0, -2.5 -2.5" transform="rotate(180,19.5,179.5)"/><rect x="22" y="167" width="5" height="5" transform="rotate(0,24.5,169.5)"/><rect x="22" y="172" width="5" height="5" transform="rotate(0,24.5,174.5)"/><rect x="22" y="177" width="5" height="5" transform="rotate(0,24.5,179.5)"/><path d="M 27 167v 5h 5v -2.5a 2.5 2.5, 0, 0, 0, -2.5 -2.5" transform="rotate(0,29.5,169.5)"/><rect x="27" y="172" width="5" height="5" transform="rotate(0,29.5,174.5)"/><path d="M 27 177v 5h 5v -2.5a 2.5 2.5, 0, 0, 0, -2.5 -2.5" transform="rotate(90,29.5,179.5)"/></clipPath></defs><rect x="0" y="0" height="200" width="200" clip-path="url('#clip-path-background-color')" fill="#fff"/><rect x="7" y="7" height="185" width="185" clip-path="url('#clip-path-dot-color')" fill="#100e2d"/></svg>