<?xml version="1.0" standalone="no"?>
<svg xmlns="http://www.w3.org/2000/svg" width="200" height="200"><defs><clipPath id="clip-path-dot-color"><circle cx="4" cy="58" r="3" transform="rotate(0,4,58)"/><path d="M 1 67v 6h 6v -3a 3 3, 0, 0, 0, -3 -3" transform="rotate(-90,4,70)"/><path d="M 1 73v 6h 6v -3a 3 3, 0, 0, 0, -3 -3" transform="rotate(180,4,76)"/><path d="M 1 103v 6h 6v -3a 3 3, 0, 0, 0, -3 -3" transform="rotate(-90,4,106)"/><path d="M 1 109v 6h 3a 3 3, 0, 0, 0, 0 -6" transform="rotate(90,4,112)"/><circle cx="4" cy="142" r="3" transform="rotate(0,4,142)"/><path d="M 7 61v 6h 3a 3 3, 0, 0, 0, 0 -6" transform="rotate(-90,10,64)"/><rect x="7" y="67" width="6" height="6" transform="rotate(0,10,70)"/><rect x="7" y="73" width="6" height="6" transform="rotate(0,10,76)"/><rect x="7" y="79" width="6" height="6" transform="rotate(0,10,82)"/><rect x="7" y="85" width="6" height="6" transform="rotate(0,10,88)"/><path d="M 7 91v 6h 3a 3 3, 0, 0, 0, 0 -6" transform="rotate(90,10,94)"/><path d="M 7 103v 6h 3a 3 3, 0, 0, 0, 0 -6" transform="rotate(0,10,106)"/><path d="M 7 115v 6h 6v -3a 3 3, 0, 0, 0, -3 -3" transform="rotate(-90,10,118)"/><path d="M 7 121v 6h 6v -3a 3 3, 0, 0, 0, -3 -3" transform="rotate(180,10,124)"/><circle cx="10" cy="136" r="3" transform="rotate(0,10,136)"/><path d="M 7 145v 6h 3a 3 3, 0, 0, 0, 0 -6" transform="rotate(180,10,148)"/><path d="M 13 49v 6h 3a 3 3, 0, 0, 0, 0 -6" transform="rotate(-90,16,52)"/><path d="M 13 55v 6h 3a 3 3, 0, 0, 0, 0 -6" transform="rotate(90,16,58)"/><path d="M 13 67v 6h 3a 3 3, 0, 0, 0, 0 -6" transform="rotate(0,16,70)"/><path d="M 13 97v 6h 3a 3 3, 0, 0, 0, 0 -6" transform="rotate(180,16,100)"/><rect x="13" y="115" width="6" height="6" transform="rotate(0,16,118)"/><rect x="13" y="121" width="6" height="6" transform="rotate(0,16,124)"/><path d="M 13 127v 6h 3a 3 3, 0, 0, 0, 0 -6" transform="rotate(90,16,130)"/><path d="M 13 139v 6h 3a 3 3, 0, 0, 0, 0 -6" transform="rotate(-90,16,142)"/><rect x="13" y="145" width="6" height="6" transform="rotate(0,16,148)"/><path d="M 19 73v 6h 3a 3 3, 0, 0, 0, 0 -6" transform="rotate(180,22,76)"/><circle cx="22" cy="88" r="3" transform="rotate(0,22,88)"/><rect x="19" y="97" width="6" height="6" transform="rotate(0,22,100)"/><rect x="19" y="103" width="6" height="6" transform="rotate(0,22,106)"/><rect x="19" y="109" width="6" height="6" transform="rotate(0,22,112)"/><rect x="19" y="115" width="6" height="6" transform="rotate(0,22,118)"/><rect x="19" y="121" width="6" height="6" transform="rotate(0,22,124)"/><circle cx="22" cy="136" r="3" transform="rotate(0,22,136)"/><path d="M 19 145v 6h 3a 3 3, 0, 0, 0, 0 -6" transform="rotate(0,22,148)"/><path d="M 25 49v 6h 3a 3 3, 0, 0, 0, 0 -6" transform="rotate(180,28,52)"/><path d="M 25 73v 6h 6v -3a 3 3, 0, 0, 0, -3 -3" transform="rotate(0,28,76)"/><path d="M 25 79v 6h 3a 3 3, 0, 0, 0, 0 -6" transform="rotate(90,28,82)"/><path d="M 25 91v 6h 6v -3a 3 3, 0, 0, 0, -3 -3" transform="rotate(-90,28,94)"/><path d="M 25 97v 6h 6v -3a 3 3, 0, 0, 0, -3 -3" transform="rotate(90,28,100)"/><rect x="25" y="109" width="6" height="6" transform="rotate(0,28,112)"/><rect x="25" y="115" width="6" height="6" transform="rotate(0,28,118)"/><rect x="25" y="121" width="6" height="6" transform="rotate(0,28,124)"/><path d="M 25 127v 6h 3a 3 3, 0, 0, 0, 0 -6" transform="rotate(90,28,130)"/><circle cx="28" cy="142" r="3" transform="rotate(0,28,142)"/><rect x="31" y="49" width="6" height="6" transform="rotate(0,34,52)"/><path d="M 31 55v 6h 3a 3 3, 0, 0, 0, 0 -6" transform="rotate(90,34,58)"/><circle cx="34" cy="70" r="3" transform="rotate(0,34,70)"/><path d="M 31 91v 6h 3a 3 3, 0, 0, 0, 0 -6" transform="rotate(0,34,94)"/><path d="M 31 103v 6h 3a 3 3, 0, 0, 0, 0 -6" transform="rotate(-90,34,106)"/><rect x="31" y="109" width="6" height="6" transform="rotate(0,34,112)"/><path d="M 31 115v 6h 6v -3a 3 3, 0, 0, 0, -3 -3" transform="rotate(90,34,118)"/><path d="M 31 145v 6h 3a 3 3, 0, 0, 0, 0 -6" transform="rotate(180,34,148)"/><path d="M 37 49v 6h 3a 3 3, 0, 0, 0, 0 -6" transform="rotate(0,40,52)"/><path d="M 37 61v 6h 3a 3 3, 0, 0, 0, 0 -6" transform="rotate(180,40,64)"/><circle cx="40" cy="76" r="3" transform="rotate(0,40,76)"/><path d="M 37 85v 6h 3a 3 3, 0, 0, 0, 0 -6" transform="rotate(180,40,88)"/><path d="M 37 97v 6h 3a 3 3, 0, 0, 0, 0 -6" transform="rotate(180,40,100)"/><rect x="37" y="109" width="6" height="6" transform="rotate(0,40,112)"/><circle cx="40" cy="124" r="3" transform="rotate(0,40,124)"/><circle cx="40" cy="136" r="3" transform="rotate(0,40,136)"/><rect x="37" y="145" width="6" height="6" transform="rotate(0,40,148)"/><path d="M 43 55v 6h 3a 3 3, 0, 0, 0, 0 -6" transform="rotate(-90,46,58)"/><path d="M 43 61v 6h 6v -3a 3 3, 0, 0, 0, -3 -3" transform="rotate(90,46,64)"/><path d="M 43 85v 6h 3a 3 3, 0, 0, 0, 0 -6" transform="rotate(0,46,88)"/><rect x="43" y="97" width="6" height="6" transform="rotate(0,46,100)"/><rect x="43" y="103" width="6" height="6" transform="rotate(0,46,106)"/><path d="M 43 109v 6h 6v -3a 3 3, 0, 0, 0, -3 -3" transform="rotate(90,46,112)"/><path d="M 43 127v 6h 3a 3 3, 0, 0, 0, 0 -6" transform="rotate(180,46,130)"/><path d="M 43 139v 6h 3a 3 3, 0, 0, 0, 0 -6" transform="rotate(-90,46,142)"/><rect x="43" y="145" width="6" height="6" transform="rotate(0,46,148)"/><path d="M 49 7v 6h 3a 3 3, 0, 0, 0, 0 -6" transform="rotate(180,52,10)"/><path d="M 49 25v 6h 3a 3 3, 0, 0, 0, 0 -6" transform="rotate(180,52,28)"/><circle cx="52" cy="40" r="3" transform="rotate(0,52,40)"/><path d="M 49 49v 6h 3a 3 3, 0, 0, 0, 0 -6" transform="rotate(180,52,52)"/><rect x="49" y="97" width="6" height="6" transform="rotate(0,52,100)"/><path d="M 49 103v 6h 6v -3a 3 3, 0, 0, 0, -3 -3" transform="rotate(90,52,106)"/><path d="M 49 115v 6h 3a 3 3, 0, 0, 0, 0 -6" transform="rotate(-90,52,118)"/><rect x="49" y="121" width="6" height="6" transform="rotate(0,52,124)"/><rect x="49" y="127" width="6" height="6" transform="rotate(0,52,130)"/><path d="M 49 133v 6h 3a 3 3, 0, 0, 0, 0 -6" transform="rotate(90,52,136)"/><path d="M 49 145v 6h 6v -3a 3 3, 0, 0, 0, -3 -3" transform="rotate(0,52,148)"/><path d="M 49 151v 6h 6v -3a 3 3, 0, 0, 0, -3 -3" transform="rotate(180,52,154)"/><path d="M 49 163v 6h 3a 3 3, 0, 0, 0, 0 -6" transform="rotate(-90,52,166)"/><path d="M 49 169v 6h 3a 3 3, 0, 0, 0, 0 -6" transform="rotate(90,52,172)"/><path d="M 49 181v 6h 3a 3 3, 0, 0, 0, 0 -6" transform="rotate(180,52,184)"/><rect x="55" y="7" width="6" height="6" transform="rotate(0,58,10)"/><path d="M 55 19v 6h 3a 3 3, 0, 0, 0, 0 -6" transform="rotate(-90,58,22)"/><rect x="55" y="25" width="6" height="6" transform="rotate(0,58,28)"/><path d="M 55 43v 6h 3a 3 3, 0, 0, 0, 0 -6" transform="rotate(-90,58,46)"/><rect x="55" y="49" width="6" height="6" transform="rotate(0,58,52)"/><path d="M 55 61v 6h 3a 3 3, 0, 0, 0, 0 -6" transform="rotate(180,58,64)"/><circle cx="58" cy="88" r="3" transform="rotate(0,58,88)"/><rect x="55" y="97" width="6" height="6" transform="rotate(0,58,100)"/><circle cx="58" cy="112" r="3" transform="rotate(0,58,112)"/><path d="M 55 121v 6h 6v -3a 3 3, 0, 0, 0, -3 -3" transform="rotate(0,58,124)"/><path d="M 55 127v 6h 6v -3a 3 3, 0, 0, 0, -3 -3" transform="rotate(90,58,130)"/><path d="M 55 139v 6h 3a 3 3, 0, 0, 0, 0 -6" transform="rotate(180,58,142)"/><path d="M 55 151v 6h 3a 3 3, 0, 0, 0, 0 -6" transform="rotate(0,58,154)"/><path d="M 55 175v 6h 6v -3a 3 3, 0, 0, 0, -3 -3" transform="rotate(-90,58,178)"/><rect x="55" y="181" width="6" height="6" transform="rotate(0,58,184)"/><path d="M 55 187v 6h 6v -3a 3 3, 0, 0, 0, -3 -3" transform="rotate(180,58,190)"/><path d="M 61 7v 6h 6v -3a 3 3, 0, 0, 0, -3 -3" transform="rotate(0,64,10)"/><path d="M 61 13v 6h 6v -3a 3 3, 0, 0, 0, -3 -3" transform="rotate(180,64,16)"/><path d="M 61 25v 6h 6v -3a 3 3, 0, 0, 0, -3 -3" transform="rotate(0,64,28)"/><rect x="61" y="31" width="6" height="6" transform="rotate(0,64,34)"/><path d="M 61 37v 6h 3a 3 3, 0, 0, 0, 0 -6" transform="rotate(90,64,40)"/><path d="M 61 49v 6h 6v -3a 3 3, 0, 0, 0, -3 -3" transform="rotate(0,64,52)"/><rect x="61" y="55" width="6" height="6" transform="rotate(0,64,58)"/><path d="M 61 61v 6h 6v -3a 3 3, 0, 0, 0, -3 -3" transform="rotate(90,64,64)"/><circle cx="64" cy="82" r="3" transform="rotate(0,64,82)"/><rect x="61" y="97" width="6" height="6" transform="rotate(0,64,100)"/><path d="M 61 103v 6h 6v -3a 3 3, 0, 0, 0, -3 -3" transform="rotate(180,64,106)"/><path d="M 61 139v 6h 3a 3 3, 0, 0, 0, 0 -6" transform="rotate(0,64,142)"/><path d="M 61 175v 6h 3a 3 3, 0, 0, 0, 0 -6" transform="rotate(0,64,178)"/><rect x="61" y="187" width="6" height="6" transform="rotate(0,64,190)"/><rect x="67" y="13" width="6" height="6" transform="rotate(0,70,16)"/><circle cx="70" cy="46" r="3" transform="rotate(0,70,46)"/><path d="M 67 55v 6h 3a 3 3, 0, 0, 0, 0 -6" transform="rotate(0,70,58)"/><circle cx="70" cy="76" r="3" transform="rotate(0,70,76)"/><rect x="67" y="97" width="6" height="6" transform="rotate(0,70,100)"/><rect x="67" y="103" width="6" height="6" transform="rotate(0,70,106)"/><rect x="67" y="109" width="6" height="6" transform="rotate(0,70,112)"/><rect x="67" y="115" width="6" height="6" transform="rotate(0,70,118)"/><rect x="67" y="121" width="6" height="6" transform="rotate(0,70,124)"/><path d="M 67 127v 6h 3a 3 3, 0, 0, 0, 0 -6" transform="rotate(90,70,130)"/><path d="M 67 145v 6h 3a 3 3, 0, 0, 0, 0 -6" transform="rotate(180,70,148)"/><path d="M 67 157v 6h 3a 3 3, 0, 0, 0, 0 -6" transform="rotate(180,70,160)"/><path d="M 67 187v 6h 6v -3a 3 3, 0, 0, 0, -3 -3" transform="rotate(0,70,190)"/><path d="M 67 193v 6h 3a 3 3, 0, 0, 0, 0 -6" transform="rotate(90,70,196)"/><path d="M 73 1v 6h 6v -3a 3 3, 0, 0, 0, -3 -3" transform="rotate(-90,76,4)"/><rect x="73" y="7" width="6" height="6" transform="rotate(0,76,10)"/><rect x="73" y="13" width="6" height="6" transform="rotate(0,76,16)"/><path d="M 73 25v 6h 3a 3 3, 0, 0, 0, 0 -6" transform="rotate(180,76,28)"/><circle cx="76" cy="40" r="3" transform="rotate(0,76,40)"/><circle cx="76" cy="52" r="3" transform="rotate(0,76,52)"/><path d="M 73 61v 6h 3a 3 3, 0, 0, 0, 0 -6" transform="rotate(-90,76,64)"/><path d="M 73 67v 6h 6v -3a 3 3, 0, 0, 0, -3 -3" transform="rotate(180,76,70)"/><path d="M 73 79v 6h 3a 3 3, 0, 0, 0, 0 -6" transform="rotate(180,76,82)"/><path d="M 73 91v 6h 6v -3a 3 3, 0, 0, 0, -3 -3" transform="rotate(-90,76,94)"/><rect x="73" y="97" width="6" height="6" transform="rotate(0,76,100)"/><path d="M 73 109v 6h 3a 3 3, 0, 0, 0, 0 -6" transform="rotate(0,76,112)"/><path d="M 73 121v 6h 3a 3 3, 0, 0, 0, 0 -6" transform="rotate(0,76,124)"/><path d="M 73 139v 6h 6v -3a 3 3, 0, 0, 0, -3 -3" transform="rotate(-90,76,142)"/><path d="M 73 145v 6h 6v -3a 3 3, 0, 0, 0, -3 -3" transform="rotate(90,76,148)"/><path d="M 73 157v 6h 3a 3 3, 0, 0, 0, 0 -6" transform="rotate(0,76,160)"/><path d="M 73 169v 6h 3a 3 3, 0, 0, 0, 0 -6" transform="rotate(-90,76,172)"/><path d="M 73 175v 6h 3a 3 3, 0, 0, 0, 0 -6" transform="rotate(90,76,178)"/><rect x="79" y="1" width="6" height="6" transform="rotate(0,82,4)"/><rect x="79" y="7" width="6" height="6" transform="rotate(0,82,10)"/><rect x="79" y="13" width="6" height="6" transform="rotate(0,82,16)"/><rect x="79" y="25" width="6" height="6" transform="rotate(0,82,28)"/><path d="M 79 43v 6h 3a 3 3, 0, 0, 0, 0 -6" transform="rotate(180,82,46)"/><path d="M 79 55v 6h 3a 3 3, 0, 0, 0, 0 -6" transform="rotate(180,82,58)"/><path d="M 79 67v 6h 3a 3 3, 0, 0, 0, 0 -6" transform="rotate(0,82,70)"/><rect x="79" y="79" width="6" height="6" transform="rotate(0,82,82)"/><path d="M 79 91v 6h 6v -3a 3 3, 0, 0, 0, -3 -3" transform="rotate(0,82,94)"/><path d="M 79 97v 6h 6v -3a 3 3, 0, 0, 0, -3 -3" transform="rotate(90,82,100)"/><path d="M 79 115v 6h 3a 3 3, 0, 0, 0, 0 -6" transform="rotate(180,82,118)"/><circle cx="82" cy="130" r="3" transform="rotate(0,82,130)"/><rect x="79" y="139" width="6" height="6" transform="rotate(0,82,142)"/><path d="M 79 151v 6h 3a 3 3, 0, 0, 0, 0 -6" transform="rotate(180,82,154)"/><circle cx="82" cy="166" r="3" transform="rotate(0,82,166)"/><path d="M 85 1v 6h 6v -3a 3 3, 0, 0, 0, -3 -3" transform="rotate(0,88,4)"/><rect x="85" y="7" width="6" height="6" transform="rotate(0,88,10)"/><rect x="85" y="13" width="6" height="6" transform="rotate(0,88,16)"/><rect x="85" y="19" width="6" height="6" transform="rotate(0,88,22)"/><rect x="85" y="25" width="6" height="6" transform="rotate(0,88,28)"/><rect x="85" y="31" width="6" height="6" transform="rotate(0,88,34)"/><rect x="85" y="37" width="6" height="6" transform="rotate(0,88,40)"/><path d="M 85 43v 6h 6v -3a 3 3, 0, 0, 0, -3 -3" transform="rotate(90,88,46)"/><path d="M 85 55v 6h 3a 3 3, 0, 0, 0, 0 -6" transform="rotate(0,88,58)"/><path d="M 85 73v 6h 6v -3a 3 3, 0, 0, 0, -3 -3" transform="rotate(-90,88,76)"/><rect x="85" y="79" width="6" height="6" transform="rotate(0,88,82)"/><path d="M 85 103v 6h 6v -3a 3 3, 0, 0, 0, -3 -3" transform="rotate(-90,88,106)"/><rect x="85" y="109" width="6" height="6" transform="rotate(0,88,112)"/><rect x="85" y="115" width="6" height="6" transform="rotate(0,88,118)"/><rect x="85" y="139" width="6" height="6" transform="rotate(0,88,142)"/><rect x="85" y="145" width="6" height="6" transform="rotate(0,88,148)"/><rect x="85" y="151" width="6" height="6" transform="rotate(0,88,154)"/><path d="M 85 157v 6h 6v -3a 3 3, 0, 0, 0, -3 -3" transform="rotate(180,88,160)"/><path d="M 85 169v 6h 3a 3 3, 0, 0, 0, 0 -6" transform="rotate(180,88,172)"/><circle cx="88" cy="190" r="3" transform="rotate(0,88,190)"/><path d="M 91 13v 6h 3a 3 3, 0, 0, 0, 0 -6" transform="rotate(0,94,16)"/><path d="M 91 25v 6h 6v -3a 3 3, 0, 0, 0, -3 -3" transform="rotate(0,94,28)"/><rect x="91" y="31" width="6" height="6" transform="rotate(0,94,34)"/><path d="M 91 67v 6h 6v -3a 3 3, 0, 0, 0, -3 -3" transform="rotate(-90,94,70)"/><rect x="91" y="73" width="6" height="6" transform="rotate(0,94,76)"/><rect x="91" y="79" width="6" height="6" transform="rotate(0,94,82)"/><rect x="91" y="85" width="6" height="6" transform="rotate(0,94,88)"/><rect x="91" y="91" width="6" height="6" transform="rotate(0,94,94)"/><rect x="91" y="97" width="6" height="6" transform="rotate(0,94,100)"/><path d="M 91 103v 6h 6v -3a 3 3, 0, 0, 0, -3 -3" transform="rotate(90,94,106)"/><path d="M 91 115v 6h 6v -3a 3 3, 0, 0, 0, -3 -3" transform="rotate(0,94,118)"/><rect x="91" y="121" width="6" height="6" transform="rotate(0,94,124)"/><rect x="91" y="127" width="6" height="6" transform="rotate(0,94,130)"/><rect x="91" y="133" width="6" height="6" transform="rotate(0,94,136)"/><path d="M 91 139v 6h 6v -3a 3 3, 0, 0, 0, -3 -3" transform="rotate(90,94,142)"/><path d="M 91 151v 6h 6v -3a 3 3, 0, 0, 0, -3 -3" transform="rotate(0,94,154)"/><rect x="91" y="157" width="6" height="6" transform="rotate(0,94,160)"/><rect x="91" y="169" width="6" height="6" transform="rotate(0,94,172)"/><path d="M 97 1v 6h 3a 3 3, 0, 0, 0, 0 -6" transform="rotate(180,100,4)"/><circle cx="100" cy="22" r="3" transform="rotate(0,100,22)"/><path d="M 97 31v 6h 6v -3a 3 3, 0, 0, 0, -3 -3" transform="rotate(0,100,34)"/><path d="M 97 37v 6h 3a 3 3, 0, 0, 0, 0 -6" transform="rotate(90,100,40)"/><path d="M 97 61v 6h 6v -3a 3 3, 0, 0, 0, -3 -3" transform="rotate(-90,100,64)"/><rect x="97" y="67" width="6" height="6" transform="rotate(0,100,70)"/><rect x="97" y="73" width="6" height="6" transform="rotate(0,100,76)"/><rect x="97" y="79" width="6" height="6" transform="rotate(0,100,82)"/><path d="M 97 85v 6h 6v -3a 3 3, 0, 0, 0, -3 -3" transform="rotate(90,100,88)"/><path d="M 97 121v 6h 6v -3a 3 3, 0, 0, 0, -3 -3" transform="rotate(0,100,124)"/><rect x="97" y="127" width="6" height="6" transform="rotate(0,100,130)"/><path d="M 97 133v 6h 6v -3a 3 3, 0, 0, 0, -3 -3" transform="rotate(90,100,136)"/><path d="M 97 145v 6h 3a 3 3, 0, 0, 0, 0 -6" transform="rotate(180,100,148)"/><path d="M 97 157v 6h 3a 3 3, 0, 0, 0, 0 -6" transform="rotate(0,100,160)"/><path d="M 97 169v 6h 3a 3 3, 0, 0, 0, 0 -6" transform="rotate(0,100,172)"/><path d="M 97 187v 6h 3a 3 3, 0, 0, 0, 0 -6" transform="rotate(180,100,190)"/><path d="M 103 1v 6h 6v -3a 3 3, 0, 0, 0, -3 -3" transform="rotate(0,106,4)"/><path d="M 103 7v 6h 3a 3 3, 0, 0, 0, 0 -6" transform="rotate(90,106,10)"/><circle cx="106" cy="52" r="3" transform="rotate(0,106,52)"/><path d="M 103 61v 6h 6v -3a 3 3, 0, 0, 0, -3 -3" transform="rotate(0,106,64)"/><rect x="103" y="67" width="6" height="6" transform="rotate(0,106,70)"/><rect x="103" y="73" width="6" height="6" transform="rotate(0,106,76)"/><rect x="103" y="79" width="6" height="6" transform="rotate(0,106,82)"/><path d="M 103 103v 6h 6v -3a 3 3, 0, 0, 0, -3 -3" transform="rotate(-90,106,106)"/><path d="M 103 109v 6h 3a 3 3, 0, 0, 0, 0 -6" transform="rotate(90,106,112)"/><path d="M 103 127v 6h 3a 3 3, 0, 0, 0, 0 -6" transform="rotate(0,106,130)"/><path d="M 103 139v 6h 6v -3a 3 3, 0, 0, 0, -3 -3" transform="rotate(-90,106,142)"/><rect x="103" y="145" width="6" height="6" transform="rotate(0,106,148)"/><path d="M 103 175v 6h 6v -3a 3 3, 0, 0, 0, -3 -3" transform="rotate(-90,106,178)"/><rect x="103" y="181" width="6" height="6" transform="rotate(0,106,184)"/><path d="M 103 187v 6h 6v -3a 3 3, 0, 0, 0, -3 -3" transform="rotate(90,106,190)"/><circle cx="112" cy="16" r="3" transform="rotate(0,112,16)"/><path d="M 109 31v 6h 3a 3 3, 0, 0, 0, 0 -6" transform="rotate(-90,112,34)"/><rect x="109" y="37" width="6" height="6" transform="rotate(0,112,40)"/><path d="M 109 43v 6h 6v -3a 3 3, 0, 0, 0, -3 -3" transform="rotate(180,112,46)"/><rect x="109" y="67" width="6" height="6" transform="rotate(0,112,70)"/><path d="M 109 79v 6h 6v -3a 3 3, 0, 0, 0, -3 -3" transform="rotate(0,112,82)"/><path d="M 109 85v 6h 3a 3 3, 0, 0, 0, 0 -6" transform="rotate(90,112,88)"/><path d="M 109 97v 6h 6v -3a 3 3, 0, 0, 0, -3 -3" transform="rotate(-90,112,100)"/><rect x="109" y="103" width="6" height="6" transform="rotate(0,112,106)"/><circle cx="112" cy="124" r="3" transform="rotate(0,112,124)"/><path d="M 109 139v 6h 6v -3a 3 3, 0, 0, 0, -3 -3" transform="rotate(0,112,142)"/><rect x="109" y="145" width="6" height="6" transform="rotate(0,112,148)"/><path d="M 109 163v 6h 3a 3 3, 0, 0, 0, 0 -6" transform="rotate(180,112,166)"/><path d="M 109 175v 6h 3a 3 3, 0, 0, 0, 0 -6" transform="rotate(0,112,178)"/><circle cx="118" cy="4" r="3" transform="rotate(0,118,4)"/><circle cx="118" cy="28" r="3" transform="rotate(0,118,28)"/><path d="M 115 43v 6h 6v -3a 3 3, 0, 0, 0, -3 -3" transform="rotate(0,118,46)"/><path d="M 115 49v 6h 6v -3a 3 3, 0, 0, 0, -3 -3" transform="rotate(180,118,52)"/><path d="M 115 61v 6h 3a 3 3, 0, 0, 0, 0 -6" transform="rotate(-90,118,64)"/><path d="M 115 67v 6h 6v -3a 3 3, 0, 0, 0, -3 -3" transform="rotate(90,118,70)"/><path d="M 115 91v 6h 6v -3a 3 3, 0, 0, 0, -3 -3" transform="rotate(-90,118,94)"/><rect x="115" y="97" width="6" height="6" transform="rotate(0,118,100)"/><path d="M 115 103v 6h 6v -3a 3 3, 0, 0, 0, -3 -3" transform="rotate(90,118,106)"/><path d="M 115 133v 6h 3a 3 3, 0, 0, 0, 0 -6" transform="rotate(180,118,136)"/><rect x="115" y="145" width="6" height="6" transform="rotate(0,118,148)"/><path d="M 115 151v 6h 3a 3 3, 0, 0, 0, 0 -6" transform="rotate(90,118,154)"/><path d="M 115 163v 6h 3a 3 3, 0, 0, 0, 0 -6" transform="rotate(0,118,166)"/><circle cx="118" cy="190" r="3" transform="rotate(0,118,190)"/><path d="M 121 13v 6h 6v -3a 3 3, 0, 0, 0, -3 -3" transform="rotate(-90,124,16)"/><path d="M 121 19v 6h 3a 3 3, 0, 0, 0, 0 -6" transform="rotate(90,124,22)"/><circle cx="124" cy="40" r="3" transform="rotate(0,124,40)"/><rect x="121" y="49" width="6" height="6" transform="rotate(0,124,52)"/><path d="M 121 55v 6h 3a 3 3, 0, 0, 0, 0 -6" transform="rotate(90,124,58)"/><circle cx="124" cy="82" r="3" transform="rotate(0,124,82)"/><rect x="121" y="91" width="6" height="6" transform="rotate(0,124,94)"/><path d="M 121 109v 6h 3a 3 3, 0, 0, 0, 0 -6" transform="rotate(180,124,112)"/><path d="M 121 133v 6h 3a 3 3, 0, 0, 0, 0 -6" transform="rotate(0,124,136)"/><path d="M 121 145v 6h 3a 3 3, 0, 0, 0, 0 -6" transform="rotate(0,124,148)"/><circle cx="124" cy="160" r="3" transform="rotate(0,124,160)"/><path d="M 121 169v 6h 3a 3 3, 0, 0, 0, 0 -6" transform="rotate(-90,124,172)"/><path d="M 121 175v 6h 6v -3a 3 3, 0, 0, 0, -3 -3" transform="rotate(180,124,178)"/><circle cx="130" cy="4" r="3" transform="rotate(0,130,4)"/><path d="M 127 13v 6h 3a 3 3, 0, 0, 0, 0 -6" transform="rotate(0,130,16)"/><path d="M 127 25v 6h 6v -3a 3 3, 0, 0, 0, -3 -3" transform="rotate(-90,130,28)"/><path d="M 127 31v 6h 3a 3 3, 0, 0, 0, 0 -6" transform="rotate(90,130,34)"/><path d="M 127 43v 6h 3a 3 3, 0, 0, 0, 0 -6" transform="rotate(-90,130,46)"/><rect x="127" y="49" width="6" height="6" transform="rotate(0,130,52)"/><path d="M 127 61v 6h 6v -3a 3 3, 0, 0, 0, -3 -3" transform="rotate(-90,130,64)"/><rect x="127" y="67" width="6" height="6" transform="rotate(0,130,70)"/><path d="M 127 73v 6h 3a 3 3, 0, 0, 0, 0 -6" transform="rotate(90,130,76)"/><path d="M 127 85v 6h 6v -3a 3 3, 0, 0, 0, -3 -3" transform="rotate(-90,130,88)"/><path d="M 127 91v 6h 6v -3a 3 3, 0, 0, 0, -3 -3" transform="rotate(90,130,94)"/><path d="M 127 103v 6h 3a 3 3, 0, 0, 0, 0 -6" transform="rotate(-90,130,106)"/><rect x="127" y="109" width="6" height="6" transform="rotate(0,130,112)"/><rect x="127" y="115" width="6" height="6" transform="rotate(0,130,118)"/><rect x="127" y="121" width="6" height="6" transform="rotate(0,130,124)"/><path d="M 127 127v 6h 3a 3 3, 0, 0, 0, 0 -6" transform="rotate(90,130,130)"/><path d="M 127 139v 6h 3a 3 3, 0, 0, 0, 0 -6" transform="rotate(180,130,142)"/><circle cx="130" cy="166" r="3" transform="rotate(0,130,166)"/><rect x="127" y="175" width="6" height="6" transform="rotate(0,130,178)"/><path d="M 127 187v 6h 3a 3 3, 0, 0, 0, 0 -6" transform="rotate(180,130,190)"/><path d="M 133 19v 6h 6v -3a 3 3, 0, 0, 0, -3 -3" transform="rotate(-90,136,22)"/><rect x="133" y="25" width="6" height="6" transform="rotate(0,136,28)"/><circle cx="136" cy="40" r="3" transform="rotate(0,136,40)"/><path d="M 133 49v 6h 6v -3a 3 3, 0, 0, 0, -3 -3" transform="rotate(0,136,52)"/><rect x="133" y="55" width="6" height="6" transform="rotate(0,136,58)"/><path d="M 133 61v 6h 6v -3a 3 3, 0, 0, 0, -3 -3" transform="rotate(90,136,64)"/><rect x="133" y="85" width="6" height="6" transform="rotate(0,136,88)"/><path d="M 133 121v 6h 3a 3 3, 0, 0, 0, 0 -6" transform="rotate(0,136,124)"/><path d="M 133 133v 6h 3a 3 3, 0, 0, 0, 0 -6" transform="rotate(-90,136,136)"/><path d="M 133 139v 6h 6v -3a 3 3, 0, 0, 0, -3 -3" transform="rotate(90,136,142)"/><path d="M 133 151v 6h 3a 3 3, 0, 0, 0, 0 -6" transform="rotate(180,136,154)"/><rect x="133" y="175" width="6" height="6" transform="rotate(0,136,178)"/><rect x="133" y="181" width="6" height="6" transform="rotate(0,136,184)"/><path d="M 133 187v 6h 6v -3a 3 3, 0, 0, 0, -3 -3" transform="rotate(90,136,190)"/><path d="M 139 13v 6h 6v -3a 3 3, 0, 0, 0, -3 -3" transform="rotate(-90,142,16)"/><rect x="139" y="19" width="6" height="6" transform="rotate(0,142,22)"/><rect x="139" y="25" width="6" height="6" transform="rotate(0,142,28)"/><path d="M 139 31v 6h 3a 3 3, 0, 0, 0, 0 -6" transform="rotate(90,142,34)"/><path d="M 139 67v 6h 3a 3 3, 0, 0, 0, 0 -6" transform="rotate(180,142,70)"/><path d="M 139 79v 6h 3a 3 3, 0, 0, 0, 0 -6" transform="rotate(-90,142,82)"/><rect x="139" y="85" width="6" height="6" transform="rotate(0,142,88)"/><circle cx="142" cy="106" r="3" transform="rotate(0,142,106)"/><path d="M 139 127v 6h 3a 3 3, 0, 0, 0, 0 -6" transform="rotate(180,142,130)"/><path d="M 139 145v 6h 6v -3a 3 3, 0, 0, 0, -3 -3" transform="rotate(-90,142,148)"/><rect x="139" y="151" width="6" height="6" transform="rotate(0,142,154)"/><rect x="139" y="157" width="6" height="6" transform="rotate(0,142,160)"/><rect x="139" y="163" width="6" height="6" transform="rotate(0,142,166)"/><rect x="139" y="169" width="6" height="6" transform="rotate(0,142,172)"/><path d="M 139 175v 6h 6v -3a 3 3, 0, 0, 0, -3 -3" transform="rotate(90,142,178)"/><path d="M 139 193v 6h 3a 3 3, 0, 0, 0, 0 -6" transform="rotate(180,142,196)"/><path d="M 145 1v 6h 3a 3 3, 0, 0, 0, 0 -6" transform="rotate(-90,148,4)"/><rect x="145" y="7" width="6" height="6" transform="rotate(0,148,10)"/><rect x="145" y="13" width="6" height="6" transform="rotate(0,148,16)"/><rect x="145" y="19" width="6" height="6" transform="rotate(0,148,22)"/><path d="M 145 25v 6h 6v -3a 3 3, 0, 0, 0, -3 -3" transform="rotate(90,148,28)"/><path d="M 145 37v 6h 3a 3 3, 0, 0, 0, 0 -6" transform="rotate(-90,148,40)"/><rect x="145" y="43" width="6" height="6" transform="rotate(0,148,46)"/><rect x="145" y="49" width="6" height="6" transform="rotate(0,148,52)"/><rect x="145" y="55" width="6" height="6" transform="rotate(0,148,58)"/><rect x="145" y="61" width="6" height="6" transform="rotate(0,148,64)"/><path d="M 145 67v 6h 6v -3a 3 3, 0, 0, 0, -3 -3" transform="rotate(90,148,70)"/><path d="M 145 85v 6h 6v -3a 3 3, 0, 0, 0, -3 -3" transform="rotate(0,148,88)"/><rect x="145" y="91" width="6" height="6" transform="rotate(0,148,94)"/><path d="M 145 97v 6h 6v -3a 3 3, 0, 0, 0, -3 -3" transform="rotate(180,148,100)"/><path d="M 145 109v 6h 3a 3 3, 0, 0, 0, 0 -6" transform="rotate(-90,148,112)"/><rect x="145" y="115" width="6" height="6" transform="rotate(0,148,118)"/><rect x="145" y="121" width="6" height="6" transform="rotate(0,148,124)"/><rect x="145" y="127" width="6" height="6" transform="rotate(0,148,130)"/><rect x="145" y="133" width="6" height="6" transform="rotate(0,148,136)"/><rect x="145" y="139" width="6" height="6" transform="rotate(0,148,142)"/><rect x="145" y="145" width="6" height="6" transform="rotate(0,148,148)"/><rect x="145" y="151" width="6" height="6" transform="rotate(0,148,154)"/><rect x="145" y="157" width="6" height="6" transform="rotate(0,148,160)"/><rect x="145" y="163" width="6" height="6" transform="rotate(0,148,166)"/><rect x="145" y="169" width="6" height="6" transform="rotate(0,148,172)"/><path d="M 145 193v 6h 3a 3 3, 0, 0, 0, 0 -6" transform="rotate(0,148,196)"/><path d="M 151 49v 6h 3a 3 3, 0, 0, 0, 0 -6" transform="rotate(0,154,52)"/><rect x="151" y="61" width="6" height="6" transform="rotate(0,154,64)"/><circle cx="154" cy="82" r="3" transform="rotate(0,154,82)"/><path d="M 151 97v 6h 6v -3a 3 3, 0, 0, 0, -3 -3" transform="rotate(0,154,100)"/><path d="M 151 103v 6h 3a 3 3, 0, 0, 0, 0 -6" transform="rotate(90,154,106)"/><path d="M 151 139v 6h 6v -3a 3 3, 0, 0, 0, -3 -3" transform="rotate(0,154,142)"/><rect x="151" y="145" width="6" height="6" transform="rotate(0,154,148)"/><rect x="151" y="169" width="6" height="6" transform="rotate(0,154,172)"/><path d="M 151 181v 6h 3a 3 3, 0, 0, 0, 0 -6" transform="rotate(-90,154,184)"/><path d="M 151 187v 6h 6v -3a 3 3, 0, 0, 0, -3 -3" transform="rotate(180,154,190)"/><path d="M 157 55v 6h 3a 3 3, 0, 0, 0, 0 -6" transform="rotate(-90,160,58)"/><rect x="157" y="61" width="6" height="6" transform="rotate(0,160,64)"/><circle cx="160" cy="94" r="3" transform="rotate(0,160,94)"/><path d="M 157 127v 6h 6v -3a 3 3, 0, 0, 0, -3 -3" transform="rotate(-90,160,130)"/><path d="M 157 133v 6h 3a 3 3, 0, 0, 0, 0 -6" transform="rotate(90,160,136)"/><rect x="157" y="145" width="6" height="6" transform="rotate(0,160,148)"/><circle cx="160" cy="160" r="3" transform="rotate(0,160,160)"/><rect x="157" y="169" width="6" height="6" transform="rotate(0,160,172)"/><path d="M 157 175v 6h 3a 3 3, 0, 0, 0, 0 -6" transform="rotate(90,160,178)"/><rect x="157" y="187" width="6" height="6" transform="rotate(0,160,190)"/><path d="M 163 61v 6h 6v -3a 3 3, 0, 0, 0, -3 -3" transform="rotate(0,166,64)"/><rect x="163" y="67" width="6" height="6" transform="rotate(0,166,70)"/><rect x="163" y="73" width="6" height="6" transform="rotate(0,166,76)"/><rect x="163" y="79" width="6" height="6" transform="rotate(0,166,82)"/><path d="M 163 85v 6h 6v -3a 3 3, 0, 0, 0, -3 -3" transform="rotate(180,166,88)"/><path d="M 163 97v 6h 6v -3a 3 3, 0, 0, 0, -3 -3" transform="rotate(-90,166,100)"/><path d="M 163 103v 6h 6v -3a 3 3, 0, 0, 0, -3 -3" transform="rotate(180,166,106)"/><path d="M 163 121v 6h 6v -3a 3 3, 0, 0, 0, -3 -3" transform="rotate(-90,166,124)"/><path d="M 163 127v 6h 6v -3a 3 3, 0, 0, 0, -3 -3" transform="rotate(90,166,130)"/><rect x="163" y="145" width="6" height="6" transform="rotate(0,166,148)"/><rect x="163" y="169" width="6" height="6" transform="rotate(0,166,172)"/><path d="M 163 187v 6h 6v -3a 3 3, 0, 0, 0, -3 -3" transform="rotate(0,166,190)"/><path d="M 163 193v 6h 3a 3 3, 0, 0, 0, 0 -6" transform="rotate(90,166,196)"/><circle cx="172" cy="52" r="3" transform="rotate(0,172,52)"/><path d="M 169 67v 6h 6v -3a 3 3, 0, 0, 0, -3 -3" transform="rotate(0,172,70)"/><path d="M 169 73v 6h 6v -3a 3 3, 0, 0, 0, -3 -3" transform="rotate(90,172,76)"/><path d="M 169 85v 6h 3a 3 3, 0, 0, 0, 0 -6" transform="rotate(0,172,88)"/><rect x="169" y="97" width="6" height="6" transform="rotate(0,172,100)"/><rect x="169" y="103" width="6" height="6" transform="rotate(0,172,106)"/><rect x="169" y="109" width="6" height="6" transform="rotate(0,172,112)"/><rect x="169" y="115" width="6" height="6" transform="rotate(0,172,118)"/><path d="M 169 121v 6h 6v -3a 3 3, 0, 0, 0, -3 -3" transform="rotate(90,172,124)"/><path d="M 169 145v 6h 6v -3a 3 3, 0, 0, 0, -3 -3" transform="rotate(0,172,148)"/><rect x="169" y="151" width="6" height="6" transform="rotate(0,172,154)"/><rect x="169" y="157" width="6" height="6" transform="rotate(0,172,160)"/><rect x="169" y="163" width="6" height="6" transform="rotate(0,172,166)"/><rect x="169" y="169" width="6" height="6" transform="rotate(0,172,172)"/><path d="M 169 175v 6h 6v -3a 3 3, 0, 0, 0, -3 -3" transform="rotate(180,172,178)"/><path d="M 175 55v 6h 3a 3 3, 0, 0, 0, 0 -6" transform="rotate(-90,178,58)"/><path d="M 175 61v 6h 6v -3a 3 3, 0, 0, 0, -3 -3" transform="rotate(180,178,64)"/><rect x="175" y="97" width="6" height="6" transform="rotate(0,178,100)"/><rect x="175" y="103" width="6" height="6" transform="rotate(0,178,106)"/><rect x="175" y="109" width="6" height="6" transform="rotate(0,178,112)"/><rect x="175" y="115" width="6" height="6" transform="rotate(0,178,118)"/><path d="M 175 133v 6h 3a 3 3, 0, 0, 0, 0 -6" transform="rotate(-90,178,136)"/><path d="M 175 139v 6h 3a 3 3, 0, 0, 0, 0 -6" transform="rotate(90,178,142)"/><rect x="175" y="157" width="6" height="6" transform="rotate(0,178,160)"/><rect x="175" y="163" width="6" height="6" transform="rotate(0,178,166)"/><rect x="175" y="169" width="6" height="6" transform="rotate(0,178,172)"/><path d="M 175 175v 6h 6v -3a 3 3, 0, 0, 0, -3 -3" transform="rotate(90,178,178)"/><circle cx="178" cy="190" r="3" transform="rotate(0,178,190)"/><rect x="181" y="61" width="6" height="6" transform="rotate(0,184,64)"/><path d="M 181 67v 6h 3a 3 3, 0, 0, 0, 0 -6" transform="rotate(90,184,70)"/><circle cx="184" cy="82" r="3" transform="rotate(0,184,82)"/><path d="M 181 97v 6h 6v -3a 3 3, 0, 0, 0, -3 -3" transform="rotate(0,184,100)"/><rect x="181" y="103" width="6" height="6" transform="rotate(0,184,106)"/><rect x="181" y="109" width="6" height="6" transform="rotate(0,184,112)"/><rect x="181" y="115" width="6" height="6" transform="rotate(0,184,118)"/><path d="M 181 127v 6h 3a 3 3, 0, 0, 0, 0 -6" transform="rotate(180,184,130)"/><path d="M 181 151v 6h 3a 3 3, 0, 0, 0, 0 -6" transform="rotate(-90,184,154)"/><rect x="181" y="157" width="6" height="6" transform="rotate(0,184,160)"/><rect x="181" y="163" width="6" height="6" transform="rotate(0,184,166)"/><path d="M 181 169v 6h 6v -3a 3 3, 0, 0, 0, -3 -3" transform="rotate(90,184,172)"/><circle cx="184" cy="184" r="3" transform="rotate(0,184,184)"/><path d="M 187 49v 6h 3a 3 3, 0, 0, 0, 0 -6" transform="rotate(-90,190,52)"/><rect x="187" y="55" width="6" height="6" transform="rotate(0,190,58)"/><rect x="187" y="61" width="6" height="6" transform="rotate(0,190,64)"/><path d="M 187 85v 6h 6v -3a 3 3, 0, 0, 0, -3 -3" transform="rotate(-90,190,88)"/><path d="M 187 91v 6h 3a 3 3, 0, 0, 0, 0 -6" transform="rotate(90,190,94)"/><rect x="187" y="109" width="6" height="6" transform="rotate(0,190,112)"/><rect x="187" y="115" width="6" height="6" transform="rotate(0,190,118)"/><rect x="187" y="121" width="6" height="6" transform="rotate(0,190,124)"/><rect x="187" y="127" width="6" height="6" transform="rotate(0,190,130)"/><path d="M 187 139v 6h 6v -3a 3 3, 0, 0, 0, -3 -3" transform="rotate(-90,190,142)"/><path d="M 187 145v 6h 6v -3a 3 3, 0, 0, 0, -3 -3" transform="rotate(180,190,148)"/><path d="M 193 55v 6h 6v -3a 3 3, 0, 0, 0, -3 -3" transform="rotate(0,196,58)"/><path d="M 193 61v 6h 6v -3a 3 3, 0, 0, 0, -3 -3" transform="rotate(90,196,64)"/><path d="M 193 73v 6h 3a 3 3, 0, 0, 0, 0 -6" transform="rotate(-90,196,76)"/><rect x="193" y="79" width="6" height="6" transform="rotate(0,196,82)"/><path d="M 193 85v 6h 6v -3a 3 3, 0, 0, 0, -3 -3" transform="rotate(90,196,88)"/><path d="M 193 109v 6h 3a 3 3, 0, 0, 0, 0 -6" transform="rotate(0,196,112)"/><path d="M 193 121v 6h 6v -3a 3 3, 0, 0, 0, -3 -3" transform="rotate(0,196,124)"/><rect x="193" y="127" width="6" height="6" transform="rotate(0,196,130)"/><rect x="193" y="133" width="6" height="6" transform="rotate(0,196,136)"/><rect x="193" y="139" width="6" height="6" transform="rotate(0,196,142)"/><path d="M 193 145v 6h 6v -3a 3 3, 0, 0, 0, -3 -3" transform="rotate(90,196,148)"/><circle cx="196" cy="178" r="3" transform="rotate(0,196,178)"/><circle cx="196" cy="196" r="3" transform="rotate(0,196,196)"/><path d="M 1 1v 6h 6v -3a 3 3, 0, 0, 0, -3 -3" transform="rotate(-90,4,4)"/><rect x="1" y="7" width="6" height="6" transform="rotate(0,4,10)"/><rect x="1" y="13" width="6" height="6" transform="rotate(0,4,16)"/><rect x="1" y="19" width="6" height="6" transform="rotate(0,4,22)"/><rect x="1" y="25" width="6" height="6" transform="rotate(0,4,28)"/><rect x="1" y="31" width="6" height="6" transform="rotate(0,4,34)"/><path d="M 1 37v 6h 6v -3a 3 3, 0, 0, 0, -3 -3" transform="rotate(180,4,40)"/><rect x="7" y="1" width="6" height="6" transform="rotate(0,10,4)"/><rect x="7" y="37" width="6" height="6" transform="rotate(0,10,40)"/><rect x="13" y="1" width="6" height="6" transform="rotate(0,16,4)"/><rect x="13" y="37" width="6" height="6" transform="rotate(0,16,40)"/><rect x="19" y="1" width="6" height="6" transform="rotate(0,22,4)"/><rect x="19" y="37" width="6" height="6" transform="rotate(0,22,40)"/><rect x="25" y="1" width="6" height="6" transform="rotate(0,28,4)"/><rect x="25" y="37" width="6" height="6" transform="rotate(0,28,40)"/><rect x="31" y="1" width="6" height="6" transform="rotate(0,34,4)"/><rect x="31" y="37" width="6" height="6" transform="rotate(0,34,40)"/><path d="M 37 1v 6h 6v -3a 3 3, 0, 0, 0, -3 -3" transform="rotate(0,40,4)"/><rect x="37" y="7" width="6" height="6" transform="rotate(0,40,10)"/><rect x="37" y="13" width="6" height="6" transform="rotate(0,40,16)"/><rect x="37" y="19" width="6" height="6" transform="rotate(0,40,22)"/><rect x="37" y="25" width="6" height="6" transform="rotate(0,40,28)"/><rect x="37" y="31" width="6" height="6" transform="rotate(0,40,34)"/><path d="M 37 37v 6h 6v -3a 3 3, 0, 0, 0, -3 -3" transform="rotate(90,40,40)"/><path d="M 13 13v 6h 6v -3a 3 3, 0, 0, 0, -3 -3" transform="rotate(-90,16,16)"/><rect x="13" y="19" width="6" height="6" transform="rotate(0,16,22)"/><path d="M 13 25v 6h 6v -3a 3 3, 0, 0, 0, -3 -3" transform="rotate(180,16,28)"/><rect x="19" y="13" width="6" height="6" transform="rotate(0,22,16)"/><rect x="19" y="19" width="6" height="6" transform="rotate(0,22,22)"/><rect x="19" y="25" width="6" height="6" transform="rotate(0,22,28)"/><path d="M 25 13v 6h 6v -3a 3 3, 0, 0, 0, -3 -3" transform="rotate(0,28,16)"/><rect x="25" y="19" width="6" height="6" transform="rotate(0,28,22)"/><path d="M 25 25v 6h 6v -3a 3 3, 0, 0, 0, -3 -3" transform="rotate(90,28,28)"/><path d="M 157 1v 6h 6v -3a 3 3, 0, 0, 0, -3 -3" transform="rotate(-90,160,4)"/><rect x="157" y="7" width="6" height="6" transform="rotate(0,160,10)"/><rect x="157" y="13" width="6" height="6" transform="rotate(0,160,16)"/><rect x="157" y="19" width="6" height="6" transform="rotate(0,160,22)"/><rect x="157" y="25" width="6" height="6" transform="rotate(0,160,28)"/><rect x="157" y="31" width="6" height="6" transform="rotate(0,160,34)"/><path d="M 157 37v 6h 6v -3a 3 3, 0, 0, 0, -3 -3" transform="rotate(180,160,40)"/><rect x="163" y="1" width="6" height="6" transform="rotate(0,166,4)"/><rect x="163" y="37" width="6" height="6" transform="rotate(0,166,40)"/><rect x="169" y="1" width="6" height="6" transform="rotate(0,172,4)"/><rect x="169" y="37" width="6" height="6" transform="rotate(0,172,40)"/><rect x="175" y="1" width="6" height="6" transform="rotate(0,178,4)"/><rect x="175" y="37" width="6" height="6" transform="rotate(0,178,40)"/><rect x="181" y="1" width="6" height="6" transform="rotate(0,184,4)"/><rect x="181" y="37" width="6" height="6" transform="rotate(0,184,40)"/><rect x="187" y="1" width="6" height="6" transform="rotate(0,190,4)"/><rect x="187" y="37" width="6" height="6" transform="rotate(0,190,40)"/><path d="M 193 1v 6h 6v -3a 3 3, 0, 0, 0, -3 -3" transform="rotate(0,196,4)"/><rect x="193" y="7" width="6" height="6" transform="rotate(0,196,10)"/><rect x="193" y="13" width="6" height="6" transform="rotate(0,196,16)"/><rect x="193" y="19" width="6" height="6" transform="rotate(0,196,22)"/><rect x="193" y="25" width="6" height="6" transform="rotate(0,196,28)"/><rect x="193" y="31" width="6" height="6" transform="rotate(0,196,34)"/><path d="M 193 37v 6h 6v -3a 3 3, 0, 0, 0, -3 -3" transform="rotate(90,196,40)"/><path d="M 169 13v 6h 6v -3a 3 3, 0, 0, 0, -3 -3" transform="rotate(-90,172,16)"/><rect x="169" y="19" width="6" height="6" transform="rotate(0,172,22)"/><path d="M 169 25v 6h 6v -3a 3 3, 0, 0, 0, -3 -3" transform="rotate(180,172,28)"/><rect x="175" y="13" width="6" height="6" transform="rotate(0,178,16)"/><rect x="175" y="19" width="6" height="6" transform="rotate(0,178,22)"/><rect x="175" y="25" width="6" height="6" transform="rotate(0,178,28)"/><path d="M 181 13v 6h 6v -3a 3 3, 0, 0, 0, -3 -3" transform="rotate(0,184,16)"/><rect x="181" y="19" width="6" height="6" transform="rotate(0,184,22)"/><path d="M 181 25v 6h 6v -3a 3 3, 0, 0, 0, -3 -3" transform="rotate(90,184,28)"/><path d="M 1 157v 6h 6v -3a 3 3, 0, 0, 0, -3 -3" transform="rotate(-90,4,160)"/><rect x="1" y="163" width="6" height="6" transform="rotate(0,4,166)"/><rect x="1" y="169" width="6" height="6" transform="rotate(0,4,172)"/><rect x="1" y="175" width="6" height="6" transform="rotate(0,4,178)"/><rect x="1" y="181" width="6" height="6" transform="rotate(0,4,184)"/><rect x="1" y="187" width="6" height="6" transform="rotate(0,4,190)"/><path d="M 1 193v 6h 6v -3a 3 3, 0, 0, 0, -3 -3" transform="rotate(180,4,196)"/><rect x="7" y="157" width="6" height="6" transform="rotate(0,10,160)"/><rect x="7" y="193" width="6" height="6" transform="rotate(0,10,196)"/><rect x="13" y="157" width="6" height="6" transform="rotate(0,16,160)"/><rect x="13" y="193" width="6" height="6" transform="rotate(0,16,196)"/><rect x="19" y="157" width="6" height="6" transform="rotate(0,22,160)"/><rect x="19" y="193" width="6" height="6" transform="rotate(0,22,196)"/><rect x="25" y="157" width="6" height="6" transform="rotate(0,28,160)"/><rect x="25" y="193" width="6" height="6" transform="rotate(0,28,196)"/><rect x="31" y="157" width="6" height="6" transform="rotate(0,34,160)"/><rect x="31" y="193" width="6" height="6" transform="rotate(0,34,196)"/><path d="M 37 157v 6h 6v -3a 3 3, 0, 0, 0, -3 -3" transform="rotate(0,40,160)"/><rect x="37" y="163" width="6" height="6" transform="rotate(0,40,166)"/><rect x="37" y="169" width="6" height="6" transform="rotate(0,40,172)"/><rect x="37" y="175" width="6" height="6" transform="rotate(0,40,178)"/><rect x="37" y="181" width="6" height="6" transform="rotate(0,40,184)"/><rect x="37" y="187" width="6" height="6" transform="rotate(0,40,190)"/><path d="M 37 193v 6h 6v -3a 3 3, 0, 0, 0, -3 -3" transform="rotate(90,40,196)"/><path d="M 13 169v 6h 6v -3a 3 3, 0, 0, 0, -3 -3" transform="rotate(-90,16,172)"/><rect x="13" y="175" width="6" height="6" transform="rotate(0,16,178)"/><path d="M 13 181v 6h 6v -3a 3 3, 0, 0, 0, -3 -3" transform="rotate(180,16,184)"/><rect x="19" y="169" width="6" height="6" transform="rotate(0,22,172)"/><rect x="19" y="175" width="6" height="6" transform="rotate(0,22,178)"/><rect x="19" y="181" width="6" height="6" transform="rotate(0,22,184)"/><path d="M 25 169v 6h 6v -3a 3 3, 0, 0, 0, -3 -3" transform="rotate(0,28,172)"/><rect x="25" y="175" width="6" height="6" transform="rotate(0,28,178)"/><path d="M 25 181v 6h 6v -3a 3 3, 0, 0, 0, -3 -3" transform="rotate(90,28,184)"/></clipPath></defs><rect x="0" y="0" height="200" width="200" clip-path="url('#clip-path-background-color')" fill="#fff"/><rect x="1" y="1" height="198" width="198" clip-path="url('#clip-path-dot-color')" fill="#100e2d"/></svg>